<svg width="164" height="35" viewBox="0 0 164 35" fill="none" xmlns="http://www.w3.org/2000/svg">
<path d="M90.912 11.5579C89.1092 11.5579 87.2655 12.3691 86.4051 13.221H86.3642V7.70432C86.3642 7.54206 86.2822 7.46094 86.1183 7.46094H81.9802C81.8163 7.46094 81.7344 7.54206 81.7344 7.70432V29.8115C81.7344 29.9738 81.8163 30.0549 81.9802 30.0549H86.1183C86.2822 30.0549 86.3642 29.9738 86.3642 29.8115V18.4537C87.0197 17.1962 88.5766 16.101 90.4202 16.101C92.5507 16.101 94.5995 17.5613 94.5995 20.2385V29.8115C94.5995 29.9738 94.6815 30.0549 94.8455 30.0549H98.9832C99.1472 30.0549 99.2292 29.9738 99.2292 29.8115V20.2385C99.1877 14.9246 95.9926 11.5579 90.912 11.5579Z" fill="#222222"/>
<path d="M120.533 20.725C120.533 15.3705 116.272 11.5576 111.356 11.5576C106.275 11.5576 101.973 15.5734 101.973 20.6844C101.973 26.0388 106.111 30.2575 111.97 30.2575C115.043 30.2575 117.542 29.4462 119.426 28.4321C119.59 28.3916 119.632 28.2293 119.632 28.067V24.2946C119.632 24.2134 119.59 24.1729 119.55 24.1729C119.508 24.1729 119.468 24.2134 119.426 24.2134C118.115 25.0248 114.797 25.9172 112.543 25.9172C109.06 25.9172 107.258 24.0918 106.89 22.1447H120.615V20.725H120.533ZM107.012 18.8591C107.217 17.3583 108.897 15.7763 111.396 15.7763C113.772 15.7763 115.453 17.3583 115.739 18.8591H107.012Z" fill="#222222"/>
<path d="M141.635 11.8415H137.496C137.373 11.8415 137.25 11.9632 137.25 12.0849V13.2613H137.209C136.062 12.2472 134.505 11.5576 132.498 11.5576C127.13 11.5576 123.238 15.8573 123.238 20.8873C123.238 25.9172 127.089 30.2575 132.498 30.2575C134.505 30.2575 136.062 29.5273 137.209 28.5132H137.25V29.8113C137.25 29.933 137.373 30.0546 137.496 30.0546H141.635C141.757 30.0546 141.88 29.933 141.88 29.8113V12.0849C141.88 11.9632 141.757 11.8415 141.635 11.8415ZM137.25 23.4428C136.717 24.254 135.366 25.6738 132.99 25.6738C129.425 25.6738 127.909 23.1994 127.909 20.8873C127.909 18.6157 129.425 16.1007 132.99 16.1007C135.324 16.1007 136.717 17.5205 137.25 18.3317V23.4428Z" fill="#222222"/>
<path d="M163.103 7.46094H158.965C158.801 7.46094 158.719 7.54206 158.719 7.70432V13.2616H158.678C157.531 12.2475 155.974 11.5579 153.925 11.5579C148.558 11.5579 144.707 15.8576 144.707 20.8875C144.707 25.9175 148.558 30.2577 153.925 30.2577C155.974 30.2577 157.49 29.4871 158.678 28.5135H158.719V29.8521C158.719 29.9738 158.801 30.0955 158.965 30.0955H163.103C163.226 30.0955 163.308 29.9738 163.308 29.8521V7.70432C163.308 7.58262 163.226 7.46094 163.103 7.46094ZM158.719 23.4431C158.186 24.2543 156.835 25.6741 154.458 25.6741C150.894 25.6741 149.419 23.1997 149.419 20.8875C149.419 18.616 150.934 16.101 154.458 16.101C156.835 16.101 158.186 17.5208 158.719 18.332V23.4431Z" fill="#222222"/>
<path d="M58.5855 7.46094H54.5294C54.3655 7.46094 54.2426 7.6232 54.2426 7.74488V13.2616H54.2016C53.0544 12.2475 51.4975 11.5579 49.449 11.5579C44.0407 11.5579 40.2305 15.8576 40.2305 20.8875C40.2305 25.9175 44.0407 30.2577 49.449 30.2577C51.4566 30.2577 53.0134 29.4871 54.2016 28.5135H54.2426V29.8115C54.2426 29.9738 54.3655 30.0955 54.5294 30.0955H58.5855C58.7494 30.0955 58.8723 29.9738 58.8723 29.8115V7.78544C58.8313 7.6232 58.7084 7.46094 58.5855 7.46094ZM54.2426 23.4431C53.71 24.2543 52.3169 25.6741 49.9816 25.6741C46.4171 25.6741 44.9422 23.1997 44.9422 20.8875C44.9422 18.616 46.4171 16.101 49.9816 16.101C52.3169 16.101 53.71 17.5208 54.2426 18.332V23.4431Z" fill="#222222"/>
<path d="M77.4317 27.9046C77.4317 26.485 76.2436 25.3086 74.8096 25.3086C73.3346 25.3086 72.1875 26.485 72.1875 27.9046C72.1875 29.3244 73.3346 30.5007 74.8096 30.5007C76.2436 30.5007 77.4317 29.3244 77.4317 27.9046Z" fill="#222222"/>
<path d="M73.0891 11.5576C70.7537 11.5576 68.8691 12.5717 68.0906 13.7075H68.0497V12.1255C68.0497 11.9632 67.8858 11.8415 67.7629 11.8415H63.7067C63.5428 11.8415 63.4199 11.9632 63.4199 12.1255V29.7707C63.4199 29.933 63.5838 30.0546 63.7067 30.0546H67.7629C67.9267 30.0546 68.0497 29.933 68.0497 29.7707V19.0213C68.6232 17.5205 70.0573 16.1007 72.5155 16.1007H73.5808C73.7447 16.1007 73.8676 15.9791 73.8676 15.8167V11.8415C73.8676 11.6793 73.7037 11.5576 73.5808 11.5576H73.0891Z" fill="#222222"/>
<path d="M18.6796 3.52575V0.726853C18.6796 0.524035 18.5567 0.402344 18.3929 0.402344H14.3777C14.2138 0.402344 14.0909 0.524035 14.0909 0.726853V3.52575C6.47024 4.7021 0.693316 11.1111 0.693316 18.94L0.652344 34.1513C0.652344 34.3947 0.8572 34.5975 1.10303 34.5975H16.5082C25.235 34.5975 32.364 27.6206 32.364 18.9805C32.364 11.0706 26.3822 4.58041 18.6796 3.52575ZM16.3853 16.3845C17.9012 16.3845 19.1303 17.6014 19.1303 19.1428C19.1303 20.6436 17.9012 21.8606 16.3853 21.8606C14.8693 21.8606 13.5992 20.6436 13.5992 19.1428C13.5992 17.6014 14.8283 16.3845 16.3853 16.3845ZM16.5082 30.095H5.73276C5.48693 30.095 5.28207 29.8922 5.28207 29.6488V18.94C5.28207 13.6667 9.05142 9.24524 14.0499 8.15002V12.4903C11.2639 13.4233 9.2153 16.0599 9.2153 19.1428C9.2153 23.037 12.411 26.2009 16.3443 26.2009C20.2775 26.2009 23.4732 23.037 23.4732 19.1428C23.4732 16.0599 21.4657 13.4233 18.6796 12.4903V8.10946C23.801 9.12355 27.6933 13.5855 27.6933 18.9805C27.6933 25.0651 22.6539 30.095 16.5082 30.095Z" fill="#00AEFF"/>
</svg>
