<svg width="170" height="42" viewBox="0 0 170 42" fill="none" xmlns="http://www.w3.org/2000/svg">
<path d="M6.05713 36.8198C6.01186 37.6922 5.76283 38.3596 5.31006 38.822C4.86106 39.2844 4.2253 39.5156 3.40276 39.5156C2.57647 39.5156 1.91995 39.2061 1.43322 38.5871C0.94649 37.9645 0.703125 37.1218 0.703125 36.0591V34.5825C0.703125 33.5235 0.952149 32.6865 1.4502 32.0713C1.95201 31.456 2.63494 31.1484 3.49898 31.1484C4.2951 31.1484 4.91011 31.3852 5.34402 31.8587C5.7817 32.3285 6.0194 33.0016 6.05713 33.8778H5.0101C4.96482 33.2141 4.82333 32.7405 4.58562 32.4572C4.34792 32.1738 3.98571 32.0321 3.49898 32.0321C2.93679 32.0321 2.50478 32.2503 2.20293 32.6865C1.90108 33.119 1.75016 33.7547 1.75016 34.5937V36.0871C1.75016 36.9111 1.88976 37.5431 2.16897 37.9831C2.45195 38.4231 2.86321 38.6431 3.40276 38.6431C3.94232 38.6431 4.33094 38.5108 4.56865 38.246C4.80635 37.9813 4.9535 37.5058 5.0101 36.8198H6.05713Z" fill="black"/>
<path d="M10.475 39.4037C10.4146 39.2732 10.3712 39.0532 10.3448 38.7438C9.9902 39.2584 9.53738 39.5156 8.98651 39.5156C8.43187 39.5156 7.99796 39.3627 7.68479 39.0569C7.3754 38.7475 7.2207 38.3131 7.2207 37.7538C7.2207 37.1386 7.432 36.6501 7.85458 36.2884C8.27717 35.9267 8.85633 35.7422 9.59209 35.7346H10.3279V35.0915C10.3279 34.7298 10.2467 34.4726 10.0845 34.3196C9.9222 34.1668 9.67512 34.0904 9.34307 34.0904C9.04122 34.0904 8.79597 34.1798 8.60731 34.3588C8.41866 34.534 8.32433 34.7578 8.32433 35.03H7.32258C7.32258 34.7204 7.41502 34.426 7.5999 34.1463C7.78478 33.8629 8.03381 33.641 8.34697 33.4807C8.66014 33.3204 9.00914 33.2402 9.394 33.2402C10.0203 33.2402 10.4958 33.395 10.8202 33.7044C11.1485 34.0102 11.3164 34.4577 11.3239 35.0467V38.1006C11.3277 38.5666 11.3918 38.9712 11.5163 39.3142V39.4037H10.475ZM9.13932 38.6151C9.38457 38.6151 9.61849 38.548 9.84116 38.4138C10.0637 38.2796 10.226 38.1118 10.3279 37.9103V36.4674H9.76185C9.28646 36.4748 8.91104 36.5811 8.63561 36.7862C8.36018 36.9875 8.22246 37.2709 8.22246 37.6363C8.22246 37.9794 8.29226 38.2292 8.43187 38.3858C8.57147 38.5386 8.80729 38.6151 9.13932 38.6151Z" fill="black"/>
<path d="M17.1997 33.3516V39.4032H16.198V34.2072H14.585L14.4888 36.2599C14.436 37.3971 14.2813 38.2044 14.0247 38.6817C13.7682 39.1552 13.3569 39.3957 12.7909 39.4032H12.457V38.4915L12.7117 38.4692C12.9909 38.4318 13.1871 38.2473 13.3003 37.9154C13.4172 37.5798 13.4946 36.9218 13.5324 35.9411L13.6286 33.3516H17.1997Z" fill="black"/>
<path d="M18.5801 36.0982C18.5801 35.2182 18.7952 34.5229 19.2253 34.0121C19.6592 33.4975 20.2308 33.2402 20.9402 33.2402C21.6495 33.2402 22.2192 33.49 22.6494 33.9896C23.0832 34.4894 23.3059 35.1698 23.3172 36.0311V36.6688C23.3172 37.5449 23.1022 38.2385 22.6721 38.7494C22.2418 39.2602 21.6684 39.5156 20.9515 39.5156C20.2421 39.5156 19.6724 39.2676 19.2423 38.7717C18.816 38.2758 18.5952 37.6046 18.5801 36.7582V36.0982ZM19.5818 36.6688C19.5818 37.2914 19.7045 37.7818 19.9497 38.1397C20.1987 38.494 20.5327 38.671 20.9515 38.671C21.8344 38.671 22.2891 38.0409 22.3154 36.7806V36.0982C22.3154 35.4793 22.1909 34.9909 21.9419 34.6329C21.6929 34.2711 21.359 34.0904 20.9402 34.0904C20.5289 34.0904 20.1987 34.2711 19.9497 34.6329C19.7045 34.9909 19.5818 35.4774 19.5818 36.0926V36.6688Z" fill="black"/>
<path d="M28.91 39.4032H27.9139V36.8192H25.7067V39.4032H24.6992V33.3516H25.7067V35.9747H27.9139V33.3516H28.91V39.4032Z" fill="black"/>
<path d="M38.7003 39.4033H37.6589V35.6391H34.3424V39.4033H33.3066V31.2598H34.3424V34.761H37.6589V31.2598H38.7003V39.4033Z" fill="black"/>
<path d="M41.4333 39.4037H40.4316V33.3521H41.4333V39.4037ZM41.5126 31.7468C41.5126 31.9147 41.4654 32.0545 41.371 32.1664C41.2768 32.2782 41.1333 32.3341 40.9409 32.3341C40.7523 32.3341 40.6108 32.2782 40.5165 32.1664C40.4221 32.0545 40.375 31.9147 40.375 31.7468C40.375 31.579 40.4221 31.4374 40.5165 31.3218C40.6108 31.2062 40.7523 31.1484 40.9409 31.1484C41.1296 31.1484 41.2711 31.2081 41.3654 31.3274C41.4635 31.443 41.5126 31.5828 41.5126 31.7468Z" fill="black"/>
<path d="M44.8686 36.3661H42.5312V35.5215H44.8686V36.3661Z" fill="black"/>
<path d="M49.8496 35.8069H47.065V39.4033H46.0293V31.2598H50.3193V32.1435H47.065V34.9288H49.8496V35.8069Z" fill="black"/>
<path d="M52.5388 39.4037H51.5371V33.3521H52.5388V39.4037ZM52.618 31.7468C52.618 31.9147 52.5709 32.0545 52.4765 32.1664C52.3822 32.2782 52.2388 32.3341 52.0464 32.3341C51.8578 32.3341 51.7162 32.2782 51.622 32.1664C51.5276 32.0545 51.4805 31.9147 51.4805 31.7468C51.4805 31.579 51.5276 31.4374 51.622 31.3218C51.7162 31.2062 51.8578 31.1484 52.0464 31.1484C52.235 31.1484 52.3765 31.2081 52.4709 31.3274C52.569 31.443 52.618 31.5828 52.618 31.7468Z" fill="black"/>
<path d="M60.0875 33.3516H61.0836V39.4032H60.0875V34.9903L57.8689 39.4032H56.8672V33.3516H57.8689V37.7701L60.0875 33.3516Z" fill="black"/>
<path d="M70.8819 39.4033H69.8406V35.6391H66.524V39.4033H65.4883V31.2598H66.524V34.761H69.8406V31.2598H70.8819V39.4033Z" fill="black"/>
<path d="M73.615 39.4037H72.6132V33.3521H73.615V39.4037ZM73.6942 31.7468C73.6942 31.9147 73.647 32.0545 73.5527 32.1664C73.4584 32.2782 73.315 32.3341 73.1226 32.3341C72.9339 32.3341 72.7924 32.2782 72.6981 32.1664C72.6038 32.0545 72.5566 31.9147 72.5566 31.7468C72.5566 31.579 72.6038 31.4374 72.6981 31.3218C72.7924 31.2062 72.9339 31.1484 73.1226 31.1484C73.3112 31.1484 73.4527 31.2081 73.5471 31.3274C73.6451 31.443 73.6942 31.5828 73.6942 31.7468Z" fill="black"/>
<path d="M74.9961 36.1039C74.9961 35.1605 75.1697 34.4483 75.5167 33.9673C75.8639 33.4826 76.3714 33.2402 77.0392 33.2402C77.6617 33.2402 78.1353 33.5031 78.4597 34.0288L78.5106 33.3521H79.4163V39.4597C79.4163 40.2091 79.2219 40.7833 78.8333 41.1823C78.4447 41.5851 77.9032 41.7864 77.209 41.7864C76.9071 41.7864 76.5675 41.7118 76.1902 41.5626C75.8167 41.4172 75.5356 41.2364 75.347 41.0202L75.7544 40.3378C76.1695 40.7405 76.6279 40.9418 77.1298 40.9418C77.9636 40.9418 78.3918 40.4925 78.4144 39.5939V38.8052C78.09 39.2788 77.6296 39.5156 77.0336 39.5156C76.3997 39.5156 75.9054 39.2807 75.5507 38.8109C75.196 38.3373 75.0112 37.6587 74.9961 36.775V36.1039ZM75.9978 36.6688C75.9978 37.3474 76.0978 37.847 76.2977 38.1677C76.5016 38.4846 76.8335 38.6431 77.2939 38.6431C77.7919 38.6431 78.1654 38.3914 78.4144 37.888V34.8622C78.1541 34.3663 77.7844 34.1183 77.3052 34.1183C76.8448 34.1183 76.5129 34.2787 76.3091 34.5993C76.1053 34.9162 76.0016 35.4047 75.9978 36.0647V36.6688Z" fill="black"/>
<path d="M81.9119 33.9725C82.293 33.4841 82.7798 33.2399 83.3722 33.2399C84.4549 33.2399 85.004 33.9539 85.019 35.382V39.4034H84.023V35.4268C84.023 34.9532 83.9419 34.6176 83.7796 34.42C83.6212 34.2187 83.3815 34.118 83.0608 34.118C82.8118 34.118 82.5874 34.2 82.3873 34.3641C82.1911 34.5282 82.0326 34.7426 81.9119 35.0073V39.4034H80.9102V30.8125H81.9119V33.9725Z" fill="black"/>
<path d="M88.3687 36.3661H86.0312V35.5215H88.3687V36.3661Z" fill="black"/>
<path d="M93.4797 35.6391H90.5649V38.5252H93.9607V39.4033H89.5293V31.2598H93.9042V32.1435H90.5649V34.761H93.4797V35.6391Z" fill="black"/>
<path d="M96.0936 33.3521L96.1219 34.0064C96.5106 33.4956 97.007 33.2402 97.6107 33.2402C98.6935 33.2402 99.2422 33.9542 99.2576 35.3823V39.4037H98.2608V35.4271C98.2608 34.9535 98.1796 34.6179 98.0183 34.4203C97.859 34.219 97.6194 34.1183 97.2987 34.1183C97.0505 34.1183 96.8255 34.2003 96.6255 34.3644C96.4294 34.5285 96.2709 34.7429 96.1502 35.0076V39.4037H95.1484V33.3521H96.0936Z" fill="black"/>
<path d="M100.555 36.1035C100.555 35.1713 100.73 34.4611 101.08 33.9725C101.436 33.4841 101.943 33.2399 102.603 33.2399C103.188 33.2399 103.645 33.4748 103.973 33.9446V30.8125H104.975V39.4034H104.057L104.007 38.7546C103.678 39.2618 103.209 39.5153 102.598 39.5153C101.963 39.5153 101.466 39.2729 101.103 38.7882C100.745 38.2997 100.561 37.6117 100.555 36.7244V36.1035ZM101.556 36.6684C101.556 37.347 101.658 37.8466 101.862 38.1674C102.065 38.4843 102.398 38.6427 102.857 38.6427C103.356 38.6427 103.728 38.3948 103.973 37.8989V34.8451C103.716 34.3604 103.346 34.118 102.863 34.118C102.403 34.118 102.071 34.2784 101.867 34.599C101.664 34.9159 101.56 35.4043 101.556 36.0644V36.6684Z" fill="black"/>
<path d="M111.021 34.0904C110.726 34.0904 110.473 34.2078 110.261 34.4427C110.051 34.6739 109.945 34.9516 109.945 35.2761H108.994C108.994 34.9293 109.087 34.5974 109.271 34.2805C109.46 33.9636 109.713 33.7119 110.03 33.5255C110.346 33.3353 110.677 33.2402 111.021 33.2402C111.692 33.2402 112.235 33.5217 112.65 34.0847C113.069 34.6441 113.278 35.3917 113.278 36.3275V36.4953C113.278 37.0621 113.184 37.5785 112.995 38.0447C112.807 38.5108 112.541 38.8724 112.197 39.1297C111.854 39.3869 111.46 39.5156 111.015 39.5156C110.437 39.5156 109.956 39.3087 109.572 38.8948C109.186 38.4809 108.994 37.9588 108.994 37.3287H109.945C109.945 37.7165 110.049 38.039 110.256 38.2963C110.467 38.5499 110.72 38.6767 111.015 38.6767C111.369 38.6767 111.658 38.5069 111.88 38.1677C112.106 37.8246 112.239 37.3511 112.276 36.747H110.494V35.8969H112.266C112.22 35.3376 112.088 34.8976 111.869 34.577C111.654 34.2525 111.371 34.0904 111.021 34.0904Z" fill="black"/>
<path d="M118.891 33.3516V39.4032H117.889V34.2072H116.276L116.18 36.2599C116.128 37.3971 115.972 38.2044 115.716 38.6817C115.459 39.1552 115.048 39.3957 114.482 39.4032H114.148V38.4915L114.402 38.4692C114.682 38.4318 114.879 38.2473 114.992 37.9154C115.109 37.5798 115.186 36.9218 115.223 35.9411L115.32 33.3516H118.891Z" fill="black"/>
<path d="M122.672 39.5156C121.91 39.5156 121.325 39.2919 120.918 38.8445C120.51 38.3932 120.303 37.7333 120.295 36.8645V36.1318C120.295 35.2295 120.493 34.5229 120.889 34.0121C121.289 33.4975 121.845 33.2402 122.559 33.2402C123.276 33.2402 123.812 33.4658 124.166 33.917C124.521 34.3681 124.702 35.071 124.709 36.0255V36.6743H121.291V36.8141C121.291 37.463 121.413 37.9346 121.659 38.2292C121.908 38.5237 122.264 38.671 122.729 38.671C123.023 38.671 123.282 38.617 123.504 38.5088C123.731 38.397 123.941 38.2217 124.138 37.9831L124.659 38.6096C124.224 39.2136 123.563 39.5156 122.672 39.5156ZM122.559 34.0904C122.144 34.0904 121.837 34.232 121.637 34.5154C121.437 34.7951 121.323 35.2313 121.297 35.8242H123.707V35.69C123.681 35.1157 123.576 34.7056 123.391 34.4595C123.21 34.2134 122.932 34.0904 122.559 34.0904Z" fill="black"/>
<path d="M127.579 36.8248H127.013V39.4032H126.012V33.3516H127.013V35.9131H127.512L129.181 33.3516H130.376L128.332 36.2319L130.523 39.4032H129.266L127.579 36.8248Z" fill="black"/>
<path d="M135.356 34.1905H133.686V39.4032H132.69V34.1905H131.043V33.3516H135.356V34.1905Z" fill="black"/>
<path d="M140.834 36.6688C140.834 37.627 140.658 38.341 140.308 38.8109C139.96 39.2807 139.468 39.5156 138.83 39.5156C138.215 39.5156 137.742 39.2863 137.41 38.8277V41.7304H136.414V33.3521H137.319L137.37 34.0232C137.705 33.5012 138.186 33.2402 138.813 33.2402C139.485 33.2402 139.987 33.4714 140.318 33.9337C140.651 34.3961 140.822 35.0878 140.834 36.0088V36.6688ZM139.837 36.1039C139.837 35.4252 139.732 34.9256 139.52 34.6049C139.31 34.2805 138.97 34.1183 138.502 34.1183C138.023 34.1183 137.659 34.355 137.41 34.8286V37.9775C137.655 38.4398 138.023 38.671 138.513 38.671C138.966 38.671 139.298 38.5108 139.51 38.19C139.724 37.8657 139.834 37.3716 139.837 36.7079V36.1039Z" fill="black"/>
<path d="M141.914 36.0982C141.914 35.2182 142.128 34.5229 142.559 34.0121C142.993 33.4975 143.565 33.2402 144.274 33.2402C144.984 33.2402 145.553 33.49 145.983 33.9896C146.417 34.4894 146.639 35.1698 146.651 36.0311V36.6688C146.651 37.5449 146.435 38.2385 146.006 38.7494C145.576 39.2602 145.002 39.5156 144.285 39.5156C143.576 39.5156 143.007 39.2676 142.576 38.7717C142.15 38.2758 141.929 37.6046 141.914 36.7582V36.0982ZM142.916 36.6688C142.916 37.2914 143.038 37.7818 143.284 38.1397C143.533 38.494 143.866 38.671 144.285 38.671C145.168 38.671 145.623 38.0409 145.649 36.7806V36.0982C145.649 35.4793 145.525 34.9909 145.275 34.6329C145.026 34.2711 144.693 34.0904 144.274 34.0904C143.862 34.0904 143.533 34.2711 143.284 34.6329C143.038 34.9909 142.916 35.4774 142.916 36.0926V36.6688Z" fill="black"/>
<path d="M152.244 39.4032H151.248V36.8192H149.041V39.4032H148.033V33.3516H149.041V35.9747H151.248V33.3516H152.244V39.4032Z" fill="black"/>
<path d="M157.15 33.3516H158.147V39.4032H157.15V34.9903L154.931 39.4032H153.93V33.3516H154.931V37.7701L157.15 33.3516Z" fill="black"/>
<path d="M161.411 36.8248H160.845V39.4032H159.844V33.3516H160.845V35.9131H161.344L163.014 33.3516H164.208L162.165 36.2319L164.355 39.4032H163.098L161.411 36.8248Z" fill="black"/>
<path d="M168.629 33.3516H169.624V39.4032H168.629V34.9903L166.41 39.4032H165.408V33.3516H166.41V37.7701L168.629 33.3516Z" fill="black"/>
<path d="M66.4727 17.4543V16.0645H73.2031V17.4543H66.4727Z" fill="black"/>
<path d="M85.5403 24.4283C83.0457 24.4283 80.9612 23.568 79.287 21.8472C77.6295 20.11 76.8008 17.9756 76.8008 15.4441C76.8008 12.9623 77.6378 10.8445 79.3121 9.09069C80.9864 7.33686 83.0792 6.45996 85.5905 6.45996C87.0303 6.45996 88.2526 6.69987 89.2571 7.17969C90.2784 7.6595 91.3081 8.37096 92.3461 9.31405L91.4923 10.1827C89.7175 8.4785 87.7419 7.62642 85.5654 7.62642C83.4559 7.62642 81.6895 8.37923 80.2665 9.88487C78.8601 11.374 78.1569 13.227 78.1569 15.4441C78.1569 17.6447 78.8684 19.4978 80.2916 21.0034C81.7314 22.509 83.4977 23.2619 85.5905 23.2619C86.8127 23.2619 87.8926 23.0385 88.8302 22.5918C89.7677 22.1451 90.7053 21.4667 91.6429 20.5567L92.5219 21.4005C91.5006 22.3932 90.4458 23.1461 89.3576 23.659C88.2693 24.1718 86.9969 24.4283 85.5403 24.4283Z" fill="black"/>
<path d="M99.7368 24.429C98.3305 24.429 97.1501 24.0816 96.1954 23.3867C95.2578 22.6752 94.7891 21.6825 94.7891 20.4085C94.7891 19.1179 95.2997 18.1087 96.321 17.3807C97.3423 16.6526 98.6985 16.2887 100.39 16.2887C101.829 16.2887 103.244 16.4707 104.634 16.8347V16.2887C104.634 15.0312 104.265 14.0715 103.529 13.4098C102.792 12.748 101.754 12.417 100.415 12.417C99.0752 12.417 97.7355 12.7562 96.3963 13.4346L95.9443 12.3674C97.5346 11.6394 99.0501 11.2754 100.49 11.2754C102.248 11.2754 103.596 11.7386 104.534 12.6652C105.404 13.5255 105.839 14.7168 105.839 16.239V24.1312H104.634V22.0217C103.479 23.6265 101.846 24.429 99.7368 24.429ZM99.8122 23.2874C101.151 23.2874 102.29 22.9234 103.228 22.1954C104.182 21.4508 104.659 20.5161 104.659 19.3909V17.9515C103.152 17.5709 101.703 17.3807 100.314 17.3807C98.9747 17.3807 97.9364 17.6537 97.2004 18.1997C96.4801 18.7291 96.1201 19.4571 96.1201 20.3837C96.1201 21.2936 96.455 22.0051 97.125 22.518C97.7944 23.0309 98.6898 23.2874 99.8122 23.2874Z" fill="black"/>
<path d="M110.266 24.1309V11.4736H111.371L116.594 18.7454L121.818 11.4736H122.923V24.1309H121.692V13.5832L116.544 20.5819L111.446 13.5832V24.1309H110.266Z" fill="black"/>
<path d="M131.496 24.429C130.09 24.429 128.91 24.0816 127.955 23.3867C127.018 22.6752 126.549 21.6825 126.549 20.4085C126.549 19.1179 127.06 18.1087 128.081 17.3807C129.103 16.6526 130.459 16.2887 132.149 16.2887C133.589 16.2887 135.004 16.4707 136.393 16.8347V16.2887C136.393 15.0312 136.025 14.0715 135.288 13.4098C134.552 12.748 133.514 12.417 132.174 12.417C130.836 12.417 129.496 12.7562 128.156 13.4346L127.704 12.3674C129.295 11.6394 130.81 11.2754 132.25 11.2754C134.008 11.2754 135.356 11.7386 136.293 12.6652C137.164 13.5255 137.599 14.7168 137.599 16.239V24.1312H136.393V22.0217C135.238 23.6265 133.606 24.429 131.496 24.429ZM131.572 23.2874C132.911 23.2874 134.05 22.9234 134.987 22.1954C135.941 21.4508 136.418 20.5161 136.418 19.3909V17.9515C134.912 17.5709 133.464 17.3807 132.074 17.3807C130.735 17.3807 129.697 17.6537 128.96 18.1997C128.24 18.7291 127.88 19.4571 127.88 20.3837C127.88 21.2936 128.215 22.0051 128.884 22.518C129.555 23.0309 130.45 23.2874 131.572 23.2874Z" fill="black"/>
<path d="M142.023 28.1018V11.4736H143.254V14.3029C144.644 12.2181 146.402 11.1758 148.528 11.1758C150.169 11.1758 151.617 11.7879 152.873 13.0123C154.128 14.2201 154.756 15.8168 154.756 17.8022C154.756 19.7712 154.128 21.3677 152.873 22.5921C151.617 23.8165 150.169 24.4287 148.528 24.4287C146.352 24.4287 144.594 23.4194 143.254 21.4009V28.1018H142.023ZM148.402 23.2622C149.842 23.2622 151.039 22.7742 151.994 21.798C152.948 20.8052 153.425 19.4734 153.425 17.8022C153.425 16.1807 152.931 14.8654 151.943 13.8561C150.973 12.8469 149.792 12.3422 148.402 12.3422C147.012 12.3422 145.79 12.8634 144.736 13.9058C143.697 14.9316 143.179 16.2387 143.179 17.8271C143.179 19.3989 143.697 20.6977 144.736 21.7235C145.79 22.7494 147.012 23.2622 148.402 23.2622Z" fill="black"/>
<path d="M162.496 24.429C161.09 24.429 159.91 24.0816 158.955 23.3867C158.018 22.6752 157.549 21.6825 157.549 20.4085C157.549 19.1179 158.06 18.1087 159.081 17.3807C160.103 16.6526 161.459 16.2887 163.149 16.2887C164.589 16.2887 166.004 16.4707 167.393 16.8347V16.2887C167.393 15.0312 167.025 14.0715 166.288 13.4098C165.552 12.748 164.514 12.417 163.174 12.417C161.836 12.417 160.496 12.7562 159.156 13.4346L158.704 12.3674C160.295 11.6394 161.81 11.2754 163.25 11.2754C165.008 11.2754 166.356 11.7386 167.293 12.6652C168.164 13.5255 168.599 14.7168 168.599 16.239V24.1312H167.393V22.0217C166.238 23.6265 164.606 24.429 162.496 24.429ZM162.572 23.2874C163.911 23.2874 165.05 22.9234 165.987 22.1954C166.941 21.4508 167.418 20.5161 167.418 19.3909V17.9515C165.912 17.5709 164.464 17.3807 163.074 17.3807C161.735 17.3807 160.697 17.6537 159.96 18.1997C159.24 18.7291 158.88 19.4571 158.88 20.3837C158.88 21.2936 159.215 22.0051 159.884 22.518C160.555 23.0309 161.45 23.2874 162.572 23.2874Z" fill="black"/>
<path d="M0.0234375 24.1307V0.0761719H5.37844V9.5949H15.2539V0.0761719H20.6089V24.1307H15.2539V14.4745H5.37844V24.1307H0.0234375Z" fill="black"/>
<path d="M23.0938 3.68455V0H28.6574V3.68455H23.0938ZM23.2328 24.1309V5.712H28.5183V24.1309H23.2328Z" fill="black"/>
<path d="M34.0371 24.1307V0.0761719H52.571V4.88708H39.3921V10.0073H51.0062V14.8182H39.3921V24.1307H34.0371Z" fill="black"/>
<path d="M54.4727 3.68455V0H60.0363V3.68455H54.4727ZM54.6117 24.1309V5.712H59.8972V24.1309H54.6117Z" fill="black"/>
</svg>
