<svg width="170" height="64" viewBox="0 0 170 64" fill="none" xmlns="http://www.w3.org/2000/svg">
<g clip-path="url(#clip0_120_896)">
<path d="M134.979 46.8156C147.399 40.2274 150.372 31.9093 146.557 29.5687C140.927 26.4001 125.43 32.072 127.215 47.6484C126.447 48.1067 124.907 48.9493 124.907 48.9493L125.919 52.0883C125.919 52.0883 128.091 50.7824 128.649 50.3932C130.468 51.8715 131.413 52.6845 134.21 52.7584C140.193 52.8964 145.334 46.2045 145.334 46.2045L143.833 43.8393C143.866 43.8196 137.288 50.201 134.979 46.8156ZM136.627 37.2657C138.408 34.0972 141.279 31.6284 142.712 32.614C144.146 33.5995 141.279 38.6061 134.597 43.9477C134.318 43.4697 134.842 40.4639 136.627 37.2657ZM22.4893 52.7387C21.2688 52.7232 20.1023 52.2301 19.2362 51.3639C16.2621 48.2249 19.0602 37.6205 19.6521 35.3292C19.6665 35.28 19.6694 35.2281 19.6604 35.1777C19.6516 35.1272 19.631 35.0796 19.6007 35.0384C19.5703 34.9973 19.5309 34.9639 19.4854 34.9408C19.44 34.9177 19.3899 34.9056 19.339 34.9053C19.2762 34.9055 19.2142 34.9217 19.1594 34.9528C19.1046 34.9839 19.0586 35.0287 19.0259 35.0828C17.7638 37.6551 10.9449 52.7387 4.92808 52.7387H4.57587C-1.2648 52.172 -0.491911 44.066 1.3229 39.1333H10.7345C9.96652 41.2473 9.72193 42.5827 9.72193 43.2923C9.75618 43.7851 10.1769 44.066 10.5584 43.8591C11.5368 43.3268 13.1461 41.2128 14.5451 38.7835C17.0643 34.3091 20.3516 27.6124 26.0063 10.666H36.3034C33.2607 20.1075 30.7758 28.6373 29.4306 38.3941C29.4124 38.5117 29.4314 38.6321 29.4849 38.7383C29.5384 38.8444 29.6236 38.9308 29.7287 38.9853C29.8337 39.0399 29.9531 39.0597 30.0698 39.0421C30.1867 39.0244 30.2951 38.9701 30.3795 38.8869C33.3146 36.1028 44.0763 12.7061 44.7171 10.666H55.0728C55.0728 10.666 44.8932 39.0299 45.7346 43.7851C45.7487 43.9605 45.8171 44.1271 45.93 44.2613C46.043 44.3956 46.1948 44.4908 46.3641 44.5337C46.5336 44.5767 46.712 44.5652 46.8747 44.5007C47.0372 44.4363 47.1757 44.3222 47.2705 44.1744C47.8674 43.4352 48.7087 42.3413 49.3007 41.6711L50.7681 43.1495C47.8331 46.8107 43.0393 53.3991 38.2845 52.6253C37.5252 52.4664 36.8282 52.088 36.2789 51.5364C31.3139 47.2049 38.2356 32.6879 39.4635 29.2681C39.7422 28.5289 39.9868 27.8243 40.163 27.4005C40.1808 27.3489 40.1862 27.2939 40.1788 27.2399C40.1713 27.1857 40.1512 27.1343 40.1201 27.0895C40.0892 27.0448 40.048 27.0081 40.0002 26.9825C39.9524 26.9569 39.8991 26.9431 39.845 26.9423C39.782 26.9417 39.7199 26.9579 39.6651 26.9891C39.6101 27.0201 39.5643 27.0652 39.5319 27.1196C39.2873 27.6468 38.6563 29.0217 38.4117 29.48C35.3593 35.8564 28.2956 52.7387 22.4893 52.7387ZM119.731 17.9245C116.974 17.8756 114.295 18.8529 112.208 20.6692L112.281 23.4533C112.281 23.4533 115.568 20.1075 118.997 21.5513C121.233 22.4679 122.911 25.1091 121.654 29.7264C121.585 30.0072 121.443 30.5395 121.375 30.8203C120.396 28.7063 116.757 27.0851 111.684 30.9583C107.976 33.7769 107.032 36.7729 106.304 39.2072C105.252 42.7651 105.325 46.5988 106.127 48.8951C106.463 49.7905 106.982 50.6045 107.652 51.2839C108.321 51.9632 109.125 52.4925 110.011 52.8373C118.406 56.0452 125.019 42.9819 127.044 33.5651C128.336 27.6124 129.314 18.0969 119.731 17.9245ZM115.216 46.5348C114.272 47.1704 112.663 47.4513 112.418 44.5243C112.105 40.3308 115.148 35.3981 116.058 34.2352C117.633 32.2987 119.765 32.1951 119.731 35.2208C119.697 38.7489 117.559 44.9825 115.216 46.5348ZM89.8919 15.4903C84.9269 13.7655 67.3901 19.3683 61.5934 38.9215C60.8939 39.1333 57.504 39.9809 57.504 39.9809L56.0365 43.9969L61.2265 42.3757C61.2265 42.3757 60.664 52.4184 69.4103 52.724C76.3027 52.4727 79.903 42.2575 77.7017 35.3144C77.2811 35.5263 71.7534 38.202 71.7534 38.202C71.7534 38.202 72.9079 45.0072 70.4621 46.5791C70.3688 46.6453 70.263 46.6916 70.1512 46.7151C70.0396 46.7385 69.9243 46.7388 69.8124 46.7157C69.7007 46.6927 69.5947 46.6467 69.5011 46.5809C69.4076 46.5151 69.3284 46.4305 69.2685 46.3327C68.569 45.3472 68.114 42.7404 68.8869 39.2861C81.5124 32.6632 90.1511 21.0536 90.6795 17.0179C90.7432 16.7108 90.6996 16.3909 90.5561 16.1125C90.4126 15.8341 90.1779 15.6143 89.8919 15.4903ZM74.1847 32.7913C72.8769 33.8127 71.4861 34.7209 70.0267 35.5065C70.0267 35.5065 70.6871 33.9543 71.1811 33.0723C72.541 30.7859 79.047 21.9405 84.5061 20.3193C84.5513 20.3027 84.6002 20.2985 84.6473 20.3077C84.6947 20.3169 84.7385 20.3389 84.7743 20.3715C84.8101 20.4039 84.8363 20.4456 84.8503 20.492C84.8643 20.5384 84.8653 20.5877 84.8535 20.6348C84.8535 22.5763 77.9317 29.9383 74.1847 32.7913ZM100.213 47.2395C100.196 47.2905 100.195 47.3456 100.21 47.3975C100.225 47.4492 100.255 47.4952 100.296 47.5295C100.338 47.5636 100.388 47.5844 100.442 47.5889C100.495 47.5935 100.548 47.5815 100.595 47.5548C101.271 47.1068 101.924 46.6249 102.552 46.1109L103.251 48.2595C102.83 48.7177 99.4698 51.3984 97.381 52.3839C95.1113 53.4433 93.0469 52.034 92.7291 50.3389C92.416 48.3679 93.3943 45.7956 93.3943 45.7956C93.3943 45.7956 89.794 49.9545 86.1204 51.9601C85.3934 52.4219 84.5618 52.6897 83.7039 52.7387C81.2238 52.6648 80.4509 50.2749 80.7346 48.9641C81.0477 47.4168 84.4083 37.0193 84.8241 35.3292C84.8289 35.2835 84.823 35.2372 84.8067 35.1943C84.7905 35.1513 84.7642 35.1129 84.7304 35.0821C84.6965 35.0513 84.6558 35.0291 84.6118 35.0172C84.5676 35.0053 84.5214 35.0041 84.4767 35.0137C83.4593 35.2947 80.8031 37.0539 80.8031 37.0539V34.1663C80.8031 34.1663 88.4978 28.8788 90.4201 28.3171C92.2056 27.8243 93.7466 28.8443 93.2915 30.8893C93.0812 32.2987 88.077 44.5243 88.077 46.0765C88.0716 46.1183 88.0765 46.1607 88.0912 46.2001C88.106 46.2396 88.1301 46.2747 88.1615 46.3025C88.193 46.3303 88.2308 46.3497 88.2715 46.3593C88.3122 46.3689 88.3547 46.3683 88.395 46.3573C89.8283 45.9336 92.4502 43.6816 94.4461 40.4737C96.3343 37.4776 97.5913 33.708 99.1665 29.0217H105.849C105.844 29.0561 100.771 44.6672 100.213 47.2395ZM169.993 32.5795C170.136 34.7673 168.071 46.2884 159.676 50.9056C157.192 52.2804 155.514 52.8077 154.007 52.7387C150.441 52.6303 148.763 49.7081 148.377 48.7572C144.288 38.5371 156.247 29.0463 156.247 29.0463H163.174C163.174 29.0463 152.609 37.5417 154.081 45.0811C155.235 49.6589 159.461 47.4415 161.81 42.2624C162.264 41.2375 165.096 34.4372 163.316 34.3337C161.741 34.2253 159.642 37.5761 159.642 37.5761L158.175 35.3193C159.33 33.8409 162.548 29.9629 166.153 28.7309C166.74 28.5635 169.959 27.8932 169.993 32.5795ZM53.8889 47.1704C54.4356 47.1704 54.97 47.3337 55.4245 47.6396C55.879 47.9456 56.2332 48.3804 56.4424 48.8891C56.6516 49.3979 56.7063 49.9576 56.5997 50.4977C56.4931 51.0379 56.2298 51.5339 55.8433 51.9232C55.4568 52.3127 54.9643 52.5777 54.4282 52.6852C53.8921 52.7927 53.3364 52.7375 52.8314 52.5268C52.3264 52.316 51.8947 51.9592 51.591 51.5013C51.2873 51.0435 51.1252 50.5052 51.1252 49.9545C51.1226 49.5883 51.1923 49.2251 51.3302 48.886C51.4682 48.5471 51.6717 48.2391 51.9289 47.98C52.186 47.7209 52.4918 47.516 52.8282 47.3771C53.1648 47.238 53.5254 47.1677 53.8889 47.1704Z" fill="#E31235"/>
</g>
<defs>
<clipPath id="clip0_120_896">
<rect width="170" height="64" fill="white"/>
</clipPath>
</defs>
</svg>
