<svg width="26" height="26" viewBox="0 0 26 26" fill="none" xmlns="http://www.w3.org/2000/svg">
<path d="M13 20.5833L12.9989 19.8333H13V20.5833ZM5.41667 19.5L5.4855 20.2468C5.27551 20.2661 5.06707 20.1962 4.91126 20.0541C4.75545 19.912 4.66667 19.7108 4.66667 19.5H5.41667ZM8.63742 19.2031L8.56859 18.4563C8.74626 18.4399 8.92394 18.4874 9.06973 18.5903L8.63742 19.2031ZM17.3333 13.3333C17.5174 13.3333 17.6667 13.1841 17.6667 13H19.1667C19.1667 14.0125 18.3459 14.8333 17.3333 14.8333V13.3333ZM17.6667 13C17.6667 12.8159 17.5174 12.6666 17.3333 12.6666V11.1666C18.3459 11.1666 19.1667 11.9874 19.1667 13H17.6667ZM17.3333 12.6666C17.1492 12.6666 17 12.8159 17 13H15.5C15.5 11.9874 16.3208 11.1666 17.3333 11.1666V12.6666ZM17 13C17 13.1841 17.1492 13.3333 17.3333 13.3333V14.8333C16.3208 14.8333 15.5 14.0125 15.5 13H17ZM13 13.3333C13.1841 13.3333 13.3333 13.1841 13.3333 13H14.8333C14.8333 14.0125 14.0125 14.8333 13 14.8333V13.3333ZM13.3333 13C13.3333 12.8159 13.1841 12.6666 13 12.6666V11.1666C14.0125 11.1666 14.8333 11.9874 14.8333 13H13.3333ZM13 12.6666C12.8159 12.6666 12.6667 12.8159 12.6667 13H11.1667C11.1667 11.9874 11.9875 11.1666 13 11.1666V12.6666ZM12.6667 13C12.6667 13.1841 12.8159 13.3333 13 13.3333V14.8333C11.9875 14.8333 11.1667 14.0125 11.1667 13H12.6667ZM8.66668 13.3333C8.85077 13.3333 9.00001 13.1841 9.00001 13H10.5C10.5 14.0125 9.6792 14.8333 8.66668 14.8333V13.3333ZM9.00001 13C9.00001 12.8159 8.85077 12.6666 8.66668 12.6666V11.1666C9.6792 11.1666 10.5 11.9874 10.5 13H9.00001ZM8.66668 12.6666C8.48258 12.6666 8.33335 12.8159 8.33335 13H6.83335C6.83335 11.9874 7.65416 11.1666 8.66668 11.1666V12.6666ZM8.33335 13C8.33335 13.1841 8.48258 13.3333 8.66668 13.3333V14.8333C7.65416 14.8333 6.83335 14.0125 6.83335 13H8.33335ZM13 19.8333C16.774 19.8333 19.8333 16.7739 19.8333 13H21.3333C21.3333 17.6023 17.6024 21.3333 13 21.3333V19.8333ZM19.8333 13C19.8333 9.22601 16.774 6.16663 13 6.16663V4.66663C17.6024 4.66663 21.3333 8.39759 21.3333 13H19.8333ZM13 6.16663C9.22606 6.16663 6.16667 9.22601 6.16667 13H4.66667C4.66667 8.39759 8.39763 4.66663 13 4.66663V6.16663ZM6.16667 13V19.5H4.66667V13H6.16667ZM5.34784 18.7531L8.56859 18.4563L8.70625 19.95L5.4855 20.2468L5.34784 18.7531ZM9.06973 18.5903C10.2193 19.4011 11.5921 19.8354 12.9989 19.8333L13.0011 21.3333C11.284 21.3359 9.60832 20.8058 8.20512 19.816L9.06973 18.5903Z" fill="white"/>
</svg>
