<svg width="57" height="57" viewBox="0 0 57 57" fill="none" xmlns="http://www.w3.org/2000/svg">
<path d="M28.5 45.125L28.4989 44.375H28.5V45.125ZM11.875 42.75L11.9438 43.4968C11.7338 43.5162 11.5254 43.4462 11.3696 43.3041C11.2138 43.162 11.125 42.9609 11.125 42.75H11.875ZM18.9359 42.0992L18.867 41.3524C19.0447 41.336 19.2224 41.3835 19.3682 41.4864L18.9359 42.0992ZM38 30.125C38.8975 30.125 39.625 29.3975 39.625 28.5H41.125C41.125 30.2259 39.7259 31.625 38 31.625V30.125ZM39.625 28.5C39.625 27.6025 38.8975 26.875 38 26.875V25.375C39.7259 25.375 41.125 26.7741 41.125 28.5H39.625ZM38 26.875C37.1025 26.875 36.375 27.6025 36.375 28.5H34.875C34.875 26.7741 36.2741 25.375 38 25.375V26.875ZM36.375 28.5C36.375 29.3975 37.1025 30.125 38 30.125V31.625C36.2741 31.625 34.875 30.2259 34.875 28.5H36.375ZM28.5 30.125C29.3975 30.125 30.125 29.3975 30.125 28.5H31.625C31.625 30.2259 30.2259 31.625 28.5 31.625V30.125ZM30.125 28.5C30.125 27.6025 29.3975 26.875 28.5 26.875V25.375C30.2259 25.375 31.625 26.7741 31.625 28.5H30.125ZM28.5 26.875C27.6025 26.875 26.875 27.6025 26.875 28.5H25.375C25.375 26.7741 26.7741 25.375 28.5 25.375V26.875ZM26.875 28.5C26.875 29.3975 27.6025 30.125 28.5 30.125V31.625C26.7741 31.625 25.375 30.2259 25.375 28.5H26.875ZM19 30.125C19.8975 30.125 20.625 29.3975 20.625 28.5H22.125C22.125 30.2259 20.7259 31.625 19 31.625V30.125ZM20.625 28.5C20.625 27.6025 19.8975 26.875 19 26.875V25.375C20.7259 25.375 22.125 26.7741 22.125 28.5H20.625ZM19 26.875C18.1025 26.875 17.375 27.6025 17.375 28.5H15.875C15.875 26.7741 17.2741 25.375 19 25.375V26.875ZM17.375 28.5C17.375 29.3975 18.1025 30.125 19 30.125V31.625C17.2741 31.625 15.875 30.2259 15.875 28.5H17.375ZM28.5 44.375C37.2675 44.375 44.375 37.2675 44.375 28.5H45.875C45.875 38.0959 38.0959 45.875 28.5 45.875V44.375ZM44.375 28.5C44.375 19.7325 37.2675 12.625 28.5 12.625V11.125C38.0959 11.125 45.875 18.9041 45.875 28.5H44.375ZM28.5 12.625C19.7325 12.625 12.625 19.7325 12.625 28.5H11.125C11.125 18.9041 18.904 11.125 28.5 11.125V12.625ZM12.625 28.5V42.75H11.125V28.5H12.625ZM11.8062 42.0032L18.867 41.3524L19.0047 42.8461L11.9438 43.4968L11.8062 42.0032ZM19.3682 41.4864C22.0396 43.3707 25.2297 44.38 28.4989 44.375L28.5011 45.875C24.9216 45.8804 21.4286 44.7754 18.5036 42.7121L19.3682 41.4864Z" fill="white"/>
</svg>
