<svg width="70" height="70" viewBox="0 0 70 70" fill="none" xmlns="http://www.w3.org/2000/svg">
<path fill-rule="evenodd" clip-rule="evenodd" d="M68.0909 11.455H1.90909V49.0004H68.0909V11.455ZM0 9.5459V50.9095H70V9.5459H0Z" fill="white"/>
<path d="M19.7275 56H50.273V57.2727C50.273 59.3814 48.5272 61.0909 46.3736 61.0909H23.627C21.4734 61.0909 19.7275 59.3814 19.7275 57.2727V56Z" fill="white"/>
<path d="M50.9665 22.2734H55.3479V25.6483C55.3479 26.8909 55.0894 27.8748 54.5724 28.6001C54.0553 29.3188 53.1723 29.9501 51.9233 30.4941L50.9665 28.7009C51.7454 28.3382 52.2792 27.9789 52.568 27.6229C52.8634 27.2602 53.0279 26.8338 53.0615 26.3435H50.9665V22.2734ZM56.0731 22.2734H60.4546V25.6483C60.4546 26.8909 60.1961 27.8748 59.679 28.6001C59.162 29.3188 58.279 29.9501 57.03 30.4941L56.0731 28.7009C56.8521 28.3382 57.3859 27.9789 57.6746 27.6229C57.9701 27.2602 58.1346 26.8338 58.1682 26.3435H56.0731V22.2734Z" fill="white"/>
<path d="M19.8814 22.2734V37.2943H15.7482V27.4517C15.0794 27.9621 14.4307 28.3751 13.8021 28.6908C13.1801 29.0065 12.3976 29.3087 11.4546 29.5975V26.2327C12.8457 25.7827 13.9258 25.242 14.6949 24.6107C15.464 23.9794 16.0659 23.2003 16.5006 22.2734H19.8814Z" fill="white"/>
<path d="M37.6182 29.8494C37.6182 27.042 38.1198 25.0775 39.123 23.9559C40.1328 22.8342 41.6677 22.2734 43.7276 22.2734C44.7174 22.2734 45.53 22.3977 46.1654 22.6462C46.8007 22.888 47.319 23.207 47.7203 23.6033C48.1216 23.9928 48.4359 24.4058 48.6633 24.8424C48.8974 25.2722 49.0846 25.776 49.2251 26.3536C49.4993 27.455 49.6364 28.6035 49.6364 29.799C49.6364 32.4788 49.185 34.4399 48.2821 35.6824C47.3792 36.9249 45.8243 37.5462 43.6173 37.5462C42.38 37.5462 41.3801 37.348 40.6177 36.9518C39.8553 36.5555 39.23 35.9746 38.7418 35.2089C38.3873 34.6649 38.1097 33.9228 37.9091 32.9825C37.7152 32.0355 37.6182 30.9911 37.6182 29.8494ZM41.6711 29.8594C41.6711 31.74 41.8349 33.0261 42.1626 33.7179C42.497 34.403 42.9786 34.7455 43.6072 34.7455C44.0219 34.7455 44.3797 34.6011 44.6806 34.3123C44.9883 34.0168 45.2123 33.5534 45.3528 32.922C45.4999 32.2907 45.5735 31.3068 45.5735 29.9702C45.5735 28.0091 45.4063 26.6927 45.0719 26.0211C44.7442 25.3428 44.2493 25.0036 43.5872 25.0036C42.9117 25.0036 42.4235 25.3495 42.1225 26.0412C41.8216 26.7263 41.6711 27.999 41.6711 29.8594Z" fill="white"/>
<path d="M23.9818 29.8494C23.9818 27.042 24.4834 25.0775 25.4866 23.9559C26.4964 22.8342 28.0313 22.2734 30.0912 22.2734C31.081 22.2734 31.8936 22.3977 32.529 22.6462C33.1643 22.888 33.6826 23.207 34.0839 23.6033C34.4852 23.9928 34.7995 24.4058 35.0269 24.8424C35.261 25.2722 35.4482 25.776 35.5887 26.3536C35.8629 27.455 36 28.6035 36 29.799C36 32.4788 35.5486 34.4399 34.6457 35.6824C33.7428 36.9249 32.1879 37.5462 29.9809 37.5462C28.7436 37.5462 27.7437 37.348 26.9813 36.9518C26.2189 36.5555 25.5936 35.9746 25.1054 35.2089C24.7509 34.6649 24.4733 33.9228 24.2727 32.9825C24.0788 32.0355 23.9818 30.9911 23.9818 29.8494ZM28.0347 29.8594C28.0347 31.74 28.1985 33.0261 28.5262 33.7179C28.8606 34.403 29.3422 34.7455 29.9708 34.7455C30.3855 34.7455 30.7433 34.6011 31.0442 34.3123C31.3519 34.0168 31.5759 33.5534 31.7164 32.922C31.8635 32.2907 31.9371 31.3068 31.9371 29.9702C31.9371 28.0091 31.7699 26.6927 31.4355 26.0211C31.1078 25.3428 30.6129 25.0036 29.9508 25.0036C29.2753 25.0036 28.7871 25.3495 28.4861 26.0412C28.1852 26.7263 28.0347 27.999 28.0347 29.8594Z" fill="white"/>
<path d="M36.9098 56.6364H33.0916V55.0664L24.1821 46.1569V44.8643L29.2823 49.9645H34.3644V43.9092H35.6371V49.9645H40.7181L45.8188 44.8638V46.1563L36.9098 55.0654V56.6364Z" fill="white"/>
</svg>
