<svg width="70" height="70" viewBox="0 0 70 70" fill="none" xmlns="http://www.w3.org/2000/svg">
<path fill-rule="evenodd" clip-rule="evenodd" d="M1.90894 18.7727C1.90894 16.1338 4.05833 14 6.70288 14H13.6322V15.2727H6.70288C4.75509 15.2727 3.18166 16.8428 3.18166 18.7727V51.8636C3.18166 53.7936 4.75509 55.3636 6.70288 55.3636H60.7514C62.6992 55.3636 64.2726 53.7936 64.2726 51.8636V41.6818H61.2349L64.9089 35.3182L68.583 41.6818H65.5453V51.8636C65.5453 54.5026 63.3959 56.6364 60.7514 56.6364H6.70288C4.05833 56.6364 1.90894 54.5026 1.90894 51.8636V18.7727Z" fill="white"/>
<path d="M14.8875 43.2725V50.9088H13.0579V47.7779H9.46636V50.9088H7.63672V43.2725H9.46636V46.2834H13.0579V43.2725H14.8875Z" fill="white"/>
<path d="M16.758 43.2725H20.3496C21.2079 43.2725 21.9646 43.4325 22.6197 43.7525C23.2823 44.0652 23.7943 44.5088 24.1557 45.0834C24.5246 45.6579 24.7091 46.327 24.7091 47.0906C24.7091 47.8543 24.5246 48.5234 24.1557 49.0979C23.7943 49.6725 23.2823 50.1197 22.6197 50.4397C21.9646 50.7525 21.2079 50.9088 20.3496 50.9088H16.758V43.2725ZM20.2592 49.4579C21.0498 49.4579 21.6785 49.247 22.1453 48.8252C22.6197 48.3961 22.8569 47.8179 22.8569 47.0906C22.8569 46.3634 22.6197 45.7888 22.1453 45.367C21.6785 44.9379 21.0498 44.7234 20.2592 44.7234H18.5877V49.4579H20.2592Z" fill="white"/>
<path d="M31.1261 50.9088L29.6014 48.7815H27.9186V50.9088H26.0889V43.2725H29.511C30.2113 43.2725 30.8174 43.3852 31.3294 43.6106C31.8489 43.8361 32.248 44.1561 32.5266 44.5706C32.8051 44.9852 32.9444 45.4761 32.9444 46.0434C32.9444 46.6106 32.8014 47.1016 32.5153 47.5161C32.2367 47.9234 31.8376 48.2361 31.3181 48.4543L33.0913 50.9088H31.1261ZM31.0922 46.0434C31.0922 45.6143 30.9491 45.287 30.663 45.0616C30.3769 44.8288 29.959 44.7125 29.4094 44.7125H27.9186V47.3743H29.4094C29.959 47.3743 30.3769 47.2579 30.663 47.0252C30.9491 46.7925 31.0922 46.4652 31.0922 46.0434Z" fill="white"/>
<path fill-rule="evenodd" clip-rule="evenodd" d="M30.8751 13.3633H37.9048V25.3633H42.2308V13.3633H49.2604V21.0906H50.3419L59.5346 13.3633H68.7272L57.3716 22.9087L68.7272 32.4542H59.5346L50.3419 24.7269H49.2604V25.3633V28.636V32.4542H42.2308V28.636H37.9048V32.4542H30.8751V28.636H16.5454V25.3633L27.901 13.3633H30.8751ZM29.7936 17.7269H30.8751V25.3633H23.8455V24.2724L29.7936 17.7269Z" fill="white"/>
</svg>
