<svg width="251" height="66" viewBox="0 0 251 66" fill="none" xmlns="http://www.w3.org/2000/svg">
<path d="M145.054 18.3878V37.9308H156.821C157.302 37.9308 157.792 37.6707 158.189 37.2646C158.565 36.8782 158.823 36.3792 158.87 35.8651L161.077 10.5529C161.133 9.90377 160.98 9.19774 160.618 8.61633C160.291 8.10397 159.781 7.68973 159.08 7.49476C147.802 4.63809 136.563 3.19825 125.311 3.19391C114.05 3.18306 102.731 4.61334 91.2959 7.49476C90.6804 7.66019 90.1707 8.10397 89.8184 8.6641C89.4485 9.25896 89.2575 9.94285 89.3063 10.5529L91.5165 35.8651V35.883C91.5581 36.3868 91.8166 36.8782 92.1947 37.2646C92.5895 37.6707 93.0853 37.9308 93.5645 37.9308H105.427V18.3878H109.404C115.617 18.3878 121.374 21.525 125.243 26.5206C129.111 21.525 134.87 18.3878 141.084 18.3878H145.054Z" stroke="white" stroke-width="5"/>
<g clip-path="url(#clip0_120_936)">
<path fill-rule="evenodd" clip-rule="evenodd" d="M249.829 65.8153H236.149L236.147 65.8135C235.814 65.8111 235.481 65.7771 235.154 65.7119C234.833 65.648 234.52 65.5505 234.22 65.421V65.4201C233.631 65.1723 233.097 64.8134 232.644 64.3633L232.642 64.3615C232.42 64.1365 232.219 63.8917 232.042 63.6303C231.678 63.0923 231.424 62.488 231.294 61.8518H231.291C231.228 61.5243 231.197 61.1917 231.197 60.8583H231.192V50.3695H249.925V53.5045H234.327V55.8727H248.787V59.0068H234.327V60.8566H234.325C234.329 61.0285 234.352 61.1918 234.393 61.3464H234.394C234.433 61.4957 234.497 61.6373 234.576 61.7693L234.58 61.7745C234.662 61.9134 234.755 62.0385 234.868 62.147V62.1444C234.979 62.2547 235.103 62.352 235.239 62.4336H235.238C235.514 62.5952 235.829 62.6803 236.149 62.6803V62.6785H249.829V65.8153ZM184.178 65.8153H170.496L170.494 65.8135C170.16 65.8114 169.827 65.7774 169.5 65.7119C169.178 65.6479 168.864 65.5504 168.563 65.421V65.4201C167.975 65.1727 167.441 64.8138 166.989 64.3633V64.3615C166.766 64.1367 166.563 63.8919 166.385 63.6303C166.02 63.0932 165.767 62.4884 165.64 61.8518H165.635C165.572 61.5243 165.541 61.1917 165.54 60.8583H165.538V50.3695H184.27V53.5045H168.673V55.8727H183.134V59.0068H168.673V60.8566H168.672C168.674 61.0285 168.697 61.1918 168.738 61.3464C168.78 61.4957 168.84 61.6373 168.922 61.7693L168.924 61.7745C169.006 61.9134 169.101 62.0385 169.211 62.147V62.1444C169.379 62.3147 169.579 62.4498 169.799 62.5418C170.02 62.6338 170.257 62.6809 170.496 62.6803V62.6785H184.178V65.8153ZM45.852 58.9573C45.9137 58.656 45.945 58.3425 45.9476 58.0212V58.0168C45.9466 57.7067 45.9146 57.3975 45.852 57.0937C45.7926 56.8022 45.7023 56.5178 45.5828 56.2453V56.2435C45.4658 55.9742 45.3221 55.7173 45.1538 55.4767C44.9882 55.2368 44.7985 55.0145 44.5876 54.8132L44.585 54.8115C43.9416 54.1845 43.128 53.7605 42.2455 53.5922C41.9375 53.533 41.6247 53.5027 41.3111 53.5019H35.345C35.0289 53.5019 34.7137 53.5332 34.4028 53.5922C34.1057 53.6489 33.815 53.7353 33.5352 53.8502C33.2573 53.9639 32.989 54.1037 32.7363 54.267C32.4948 54.4253 32.2697 54.6071 32.0641 54.8098L32.0598 54.8132C31.847 55.0156 31.6603 55.237 31.4962 55.4732C31.3303 55.7164 31.187 55.9743 31.0689 56.2435C30.9508 56.5171 30.8605 56.8019 30.8014 57.0937C30.7389 57.3977 30.7077 57.7068 30.7068 58.0168V58.0212C30.7085 58.3425 30.7398 58.6551 30.8023 58.9573C30.8614 59.2543 30.9508 59.5444 31.0715 59.8258C31.3029 60.3797 31.6418 60.8824 32.0685 61.3047V61.3099C32.4888 61.7354 32.9881 62.0741 33.5387 62.3077C34.1097 62.5514 34.7242 62.6764 35.345 62.675V62.6733H41.3111V62.675C41.6324 62.6733 41.9424 62.642 42.242 62.5795C42.539 62.5187 42.8291 62.4275 43.107 62.3077C43.3918 62.1861 43.6541 62.042 43.8972 61.8796C44.39 61.5408 44.815 61.1128 45.1504 60.6178C45.3171 60.3694 45.4587 60.1054 45.5785 59.8266L45.582 59.8249C45.7023 59.5457 45.7928 59.2546 45.852 58.9565V58.9573ZM48.9966 56.7602C49.0617 57.1649 49.0947 57.5826 49.0973 58.0168V58.0212C49.0958 58.4437 49.0622 58.8656 48.9966 59.283C48.9315 59.6929 48.8316 60.0967 48.6979 60.4892C48.443 61.2539 48.0712 61.9746 47.5958 62.6255C47.122 63.2683 46.5534 63.8355 45.9094 64.3077C45.2572 64.7821 44.5361 65.1538 43.7713 65.4097C42.9792 65.6752 42.1491 65.8093 41.3137 65.8066H35.3415C34.0949 65.811 32.8658 65.5133 31.7593 64.939C31.4027 64.7554 31.061 64.5443 30.7372 64.3077V64.3051C30.4162 64.071 30.1137 63.8126 29.8323 63.5322H29.8279C28.9769 62.675 28.3351 61.6331 27.9522 60.4875C27.8212 60.0947 27.7224 59.6918 27.6569 59.283C27.5912 58.8656 27.5578 58.4437 27.557 58.0212V58.0168C27.5518 56.8039 27.8387 55.6076 28.3936 54.5291C28.9485 53.4505 29.7551 52.5215 30.745 51.8207C31.3993 51.3594 32.1188 50.9982 32.8796 50.749H32.8804C33.6762 50.4958 34.5065 50.3684 35.3415 50.3713L35.3442 50.3695H41.3111L41.3128 50.3713C42.1465 50.3713 42.9741 50.4989 43.7678 50.7499H43.7696C44.5303 51.0006 45.2501 51.3617 45.9059 51.8215C46.5489 52.2789 47.1177 52.8325 47.5924 53.4628V53.4646C47.8294 53.7824 48.0413 54.1176 48.2246 54.4676H48.2263C48.4122 54.8219 48.5702 55.191 48.6979 55.5705V55.5731C48.8307 55.9552 48.9323 56.3538 48.9966 56.7602ZM70.2972 60.3503L71.9325 61.9655L72.206 62.2365L71.9802 62.5483C71.7432 62.8751 71.4825 63.1843 71.2004 63.4731C70.9173 63.7597 70.6133 64.0263 70.2912 64.2686H70.2894C69.9638 64.5096 69.6203 64.7256 69.2621 64.9147H69.2612C68.8991 65.104 68.523 65.2655 68.1375 65.3975C67.7423 65.5304 67.3368 65.632 66.9252 65.7015C66.5153 65.7684 66.0915 65.804 65.6555 65.8057H59.1068C58.6851 65.8034 58.2643 65.77 57.8475 65.7058C57.4407 65.638 57.04 65.5378 56.6491 65.4062C56.2657 65.2776 55.8924 65.1206 55.5323 64.9364C55.1764 64.7532 54.8358 64.5418 54.5137 64.3042C54.1908 64.0675 53.886 63.8072 53.6018 63.5252V63.5235C53.3207 63.24 53.0609 62.9361 52.8246 62.6143C52.099 61.63 51.6191 60.4867 51.4247 59.2795C51.3567 58.8632 51.3227 58.4421 51.3231 58.0203V58.0177C51.3231 57.184 51.4568 56.3555 51.72 55.5644C51.8502 55.184 52.0083 54.815 52.1933 54.4607V54.4572C52.38 54.1055 52.5893 53.7703 52.8272 53.4559H52.8289C53.5462 52.5062 54.4728 51.7348 55.5367 51.2015C55.8919 51.0278 56.2635 50.8767 56.6552 50.749C57.4479 50.4968 58.2749 50.369 59.1068 50.3704V50.3695H65.6538L65.6555 50.3713C66.4994 50.3691 67.3379 50.5058 68.1375 50.7759C68.9089 51.0411 69.6352 51.4227 70.2912 51.9075C70.9397 52.3915 71.5097 52.9726 71.9811 53.6304L72.2051 53.9396L71.9342 54.2088L70.2998 55.8449L69.896 56.2487L69.5999 55.7598C69.3257 55.3111 68.9795 54.9106 68.5751 54.5744V54.5727C68.376 54.4049 68.1624 54.2549 67.9369 54.1246C67.7082 53.9924 67.4692 53.8792 67.2221 53.7859C66.9763 53.692 66.7222 53.6214 66.4632 53.5749C66.196 53.527 65.9252 53.5026 65.6538 53.5019H59.1076C58.7918 53.5031 58.4767 53.5327 58.1663 53.5905V53.5922C57.2846 53.7594 56.471 54.1808 55.8259 54.8045H55.8233C55.6148 55.0078 55.4273 55.2301 55.2605 55.468C55.0955 55.7112 54.9531 55.9682 54.835 56.2374C54.715 56.5096 54.6253 56.7941 54.5675 57.0859C54.505 57.3829 54.4755 57.6938 54.472 58.0168V58.0212C54.4755 58.3416 54.505 58.6534 54.5675 58.9521C54.6257 59.2457 54.7169 59.534 54.8393 59.8145V59.8162C55.0693 60.3712 55.4063 60.8755 55.8311 61.3003V61.3021C56.4714 61.947 57.286 62.3909 58.1749 62.5795C58.4763 62.642 58.7854 62.6733 59.1076 62.675V62.6733H65.6538V62.675C65.9308 62.6733 66.2026 62.649 66.4632 62.6012C66.7211 62.5561 66.9738 62.4849 67.2221 62.3919C67.7151 62.2082 68.1734 61.9425 68.5778 61.606C68.7792 61.441 68.9633 61.2587 69.1353 61.0624C69.3081 60.8644 69.4653 60.6534 69.5999 60.4354L69.8951 59.9552L70.2972 60.3503ZM90.3161 58.4519L94.1632 65.1318L94.5522 65.8066H90.9057L90.7772 65.579L87.5849 60.0359L87.5805 60.0333C87.4704 59.8379 87.33 59.6612 87.1646 59.5097L87.1637 59.507C87.0808 59.4311 86.9926 59.3612 86.8997 59.2978C86.8042 59.237 86.7052 59.1849 86.6027 59.1388C86.3988 59.0525 86.1798 59.0074 85.9583 59.006V59.0077H78.0505V65.8066H74.9155V50.3695H78.0505V55.8727H82.4968L84.2562 52.9418V52.9409C84.4047 52.6978 84.5715 52.4633 84.7582 52.2401C85.1259 51.7963 85.5622 51.414 86.0504 51.1077V51.1068C86.2979 50.9548 86.5575 50.8237 86.8346 50.7108C87.1099 50.5979 87.3982 50.5154 87.696 50.4581C87.9972 50.4006 88.3031 50.3715 88.6096 50.3713L88.6114 50.3687H90.8397V53.5037H88.6114V53.5019C88.3934 53.5019 88.1772 53.5479 87.9774 53.6348C87.8777 53.6783 87.7821 53.7306 87.6917 53.7911C87.5988 53.8519 87.5119 53.9214 87.432 53.9987C87.3486 54.0766 87.27 54.1595 87.1967 54.247H87.195C87.1244 54.3347 87.0597 54.4269 87.0013 54.5232L86.9987 54.5258L86.1633 55.8797C86.4064 55.8883 86.6426 55.9179 86.8684 55.9622C87.4485 56.075 88.0043 56.2904 88.5089 56.5978C89.0073 56.9007 89.4505 57.2863 89.8193 57.7381C90.0061 57.9621 90.1702 58.2018 90.3161 58.4502V58.4528V58.4519ZM205.78 50.8202V65.8066H202.648V60.3043H192.065L192.062 60.3017C191.729 60.3001 191.398 60.2666 191.071 60.2018C190.12 60.0075 189.247 59.5383 188.561 58.8523V58.8505C188.335 58.627 188.132 58.3815 187.954 58.1176C187.776 57.8527 187.624 57.5715 187.498 57.2778V57.2769C187.371 56.9756 187.274 56.6619 187.211 56.3408H187.208C187.145 56.0138 187.112 55.6814 187.112 55.3482H187.109V50.3695H190.242V55.3482H190.24C190.243 55.5201 190.268 55.6825 190.307 55.8345H190.311C190.351 55.9839 190.412 56.1272 190.492 56.2592L190.497 56.2635C190.577 56.4024 190.673 56.5266 190.782 56.6369H190.785C191.124 56.9763 191.584 57.1682 192.065 57.171V57.1693H202.648V50.3695H205.78V50.8202ZM228.465 59.8457C228.53 60.1697 228.564 60.504 228.565 60.8479V60.8514C228.564 61.1944 228.53 61.5253 228.465 61.8466C228.401 62.1668 228.304 62.4796 228.176 62.7801L228.173 62.7827C228.047 63.0767 227.893 63.3579 227.713 63.6225C227.534 63.8855 227.33 64.1317 227.106 64.358C226.65 64.8066 226.115 65.166 225.527 65.4175H225.525C224.914 65.6747 224.257 65.807 223.594 65.8066H208.698V50.3695H211.833V55.8727H223.594C223.937 55.8744 224.267 55.91 224.589 55.9743C224.914 56.0394 225.227 56.135 225.525 56.2609H225.527C226.116 56.5115 226.652 56.872 227.106 57.323C227.332 57.5488 227.536 57.7963 227.713 58.0611C227.89 58.3199 228.042 58.6013 228.173 58.9035L228.176 58.9061C228.302 59.204 228.399 59.5183 228.465 59.844V59.8457ZM225.35 61.3299C225.393 61.1735 225.414 61.0164 225.414 60.8514V60.8479C225.414 60.6777 225.393 60.517 225.35 60.359C225.31 60.2097 225.249 60.0665 225.17 59.9334L225.166 59.9317C225.086 59.796 224.99 59.6706 224.88 59.5583C224.659 59.3342 224.383 59.1732 224.079 59.0919C223.919 59.0489 223.755 59.0265 223.589 59.0251V59.0268H211.833V62.6733H223.589V62.675C223.913 62.672 224.23 62.5852 224.51 62.4232C224.919 62.1792 225.219 61.7884 225.35 61.3299ZM137.333 58.9573C137.391 58.656 137.424 58.3425 137.426 58.0212V58.0168C137.424 57.7069 137.393 57.3978 137.333 57.0937C137.273 56.8022 137.182 56.5179 137.062 56.2453V56.2435C136.945 55.9742 136.801 55.7173 136.632 55.4767C136.467 55.2375 136.277 55.0153 136.068 54.8132L136.067 54.8115C135.857 54.6067 135.627 54.4229 135.381 54.2627C135.132 54.1017 134.87 53.9637 134.596 53.8502C134.315 53.7364 134.024 53.65 133.727 53.5922C133.419 53.5333 133.106 53.5031 132.792 53.5019H126.824C126.502 53.5019 126.19 53.534 125.884 53.5922C125.001 53.7615 124.187 54.1846 123.542 54.8098L123.539 54.8132C123.326 55.0156 123.14 55.237 122.975 55.4732C122.637 55.9611 122.402 56.5124 122.283 57.0937C122.218 57.3977 122.186 57.7068 122.186 58.0168V58.0212C122.189 58.3425 122.218 58.6551 122.283 58.9573C122.34 59.2543 122.431 59.5444 122.55 59.8258C122.673 60.1089 122.814 60.3746 122.98 60.6204C123.142 60.86 123.33 61.091 123.546 61.3055V61.3099C123.975 61.7427 124.486 62.0862 125.048 62.3205C125.611 62.5549 126.214 62.6753 126.824 62.675V62.6733H132.792V62.675C133.104 62.675 133.415 62.642 133.721 62.5795C134.018 62.5187 134.306 62.4284 134.586 62.3077C134.871 62.1861 135.133 62.042 135.375 61.8796C136.121 61.3699 136.705 60.6576 137.06 59.8266L137.062 59.8249C137.182 59.547 137.271 59.2569 137.333 58.9565V58.9573ZM140.477 56.7602C140.539 57.1649 140.575 57.5826 140.577 58.0168V58.0212C140.575 58.4437 140.541 58.8654 140.477 59.283C140.412 59.6929 140.311 60.0964 140.177 60.4892C140.048 60.8713 139.891 61.2422 139.708 61.6008C139.524 61.9587 139.312 62.3014 139.074 62.6255C138.36 63.5929 137.434 64.3843 136.368 64.939C135.263 65.5121 134.037 65.8097 132.792 65.8066H126.822C126.399 65.806 125.976 65.7724 125.558 65.7058C124.35 65.5104 123.204 65.0313 122.217 64.3077V64.3051C121.896 64.0715 121.593 63.8131 121.313 63.5322H121.311C121.031 63.2496 120.772 62.9466 120.536 62.6255C120.297 62.3021 120.084 61.9593 119.901 61.6008C119.523 60.8741 119.265 60.0911 119.136 59.2821C119.071 58.865 119.037 58.4434 119.036 58.0212V58.0168C119.037 57.5969 119.071 57.1776 119.136 56.7628C119.328 55.5656 119.81 54.4333 120.539 53.4646C121.011 52.8324 121.579 52.2778 122.223 51.8207C122.877 51.3597 123.596 50.9985 124.356 50.749H124.359C124.751 50.6248 125.152 50.5305 125.558 50.4668C125.963 50.4051 126.383 50.373 126.822 50.3713L126.824 50.3695H132.792V50.3713C133.625 50.3713 134.454 50.499 135.248 50.7499H135.249C135.634 50.8758 136.003 51.0295 136.361 51.2102C137.426 51.741 138.353 52.5122 139.069 53.4628V53.4646C139.309 53.7824 139.522 54.1176 139.703 54.4676H139.707C139.888 54.8193 140.047 55.1875 140.177 55.5705V55.5731C140.31 55.9552 140.41 56.3538 140.477 56.7602ZM159.909 55.8119C159.952 55.6547 159.974 55.4915 159.974 55.3282V55.3247C159.974 55.0865 159.927 54.8505 159.836 54.6306C159.744 54.4107 159.609 54.2112 159.44 54.0438C159.329 53.9326 159.205 53.8357 159.071 53.7555H159.068C158.934 53.6737 158.79 53.6112 158.638 53.5697H158.637C158.478 53.5252 158.314 53.5024 158.149 53.5019V53.5045H146.391V57.1493H158.149V57.151C158.474 57.148 158.793 57.0612 159.075 56.8992C159.344 56.7385 159.568 56.5127 159.728 56.2435C159.806 56.108 159.867 55.963 159.909 55.8119ZM163.024 54.3321C163.089 54.6508 163.124 54.9817 163.124 55.3247V55.3282C163.123 55.9949 162.991 56.6549 162.734 57.27L162.733 57.2726C162.482 57.8616 162.119 58.3966 161.665 58.8479L161.664 58.8497C161.44 59.0754 161.193 59.2787 160.928 59.4558C160.661 59.6344 160.377 59.7876 160.082 59.9135V59.9126C159.78 60.04 159.467 60.1369 159.146 60.2018C158.825 60.2652 158.495 60.2999 158.152 60.3017L158.149 60.3043H146.391V65.8066H143.258V50.3695H158.149L158.152 50.3713C158.495 50.373 158.825 50.4077 159.146 50.472C159.467 50.5354 159.78 50.6318 160.082 50.7586H160.085C161.275 51.2622 162.224 52.2071 162.733 53.3951H162.734C162.861 53.693 162.959 54.0047 163.024 54.3321ZM112.243 54.9287C112.27 54.8245 112.286 54.7168 112.287 54.6092V54.6074C112.286 54.4983 112.271 54.3897 112.243 54.2844C112.216 54.1941 112.177 54.1081 112.126 54.029V54.0273C112.017 53.8634 111.866 53.7315 111.689 53.6452C111.593 53.5986 111.491 53.5625 111.387 53.5375C111.274 53.5138 111.159 53.5022 111.043 53.5028H99.8618V55.8736H111.178V55.8744C111.361 55.8718 111.537 55.8137 111.684 55.7068L111.686 55.7042C111.959 55.5219 112.157 55.2474 112.243 54.9313V54.9287ZM113.357 61.3299C113.4 61.1762 113.423 61.0172 113.423 60.854V60.8453C113.423 60.6777 113.4 60.5153 113.357 60.359C113.316 60.2097 113.255 60.0668 113.176 59.9343L113.174 59.9274C113.095 59.7941 113 59.6707 112.892 59.56C112.781 59.4474 112.657 59.3502 112.521 59.2708C112.248 59.1098 111.938 59.0249 111.621 59.0251V59.0259H99.8618V62.6733H111.621V62.6742C111.781 62.6725 111.941 62.6498 112.095 62.6064C112.244 62.5655 112.387 62.5041 112.519 62.4241L112.521 62.4223C112.66 62.3398 112.783 62.2452 112.892 62.1332C112.998 62.0237 113.094 61.9013 113.174 61.7641L113.176 61.7615C113.256 61.6251 113.315 61.4818 113.357 61.3299ZM116.522 60.0064C116.568 60.2756 116.592 60.5552 116.594 60.847V60.8514C116.592 61.1944 116.559 61.5253 116.495 61.8466C116.429 62.1731 116.33 62.484 116.203 62.7801V62.7819C115.69 63.968 114.741 64.9117 113.552 65.4175H113.549C113.248 65.5446 112.935 65.6412 112.615 65.7058C112.288 65.7706 111.955 65.8043 111.622 65.8066H96.7268V50.3695H111.043V50.3704C111.347 50.373 111.639 50.4008 111.92 50.4529C112.202 50.5067 112.474 50.5849 112.743 50.6908C113.006 50.7977 113.256 50.9262 113.488 51.0738C113.726 51.224 113.943 51.3951 114.141 51.5862C114.554 51.9771 114.882 52.4487 115.105 52.9717C115.328 53.4947 115.441 54.058 115.437 54.6265V54.63C115.436 54.8831 115.415 55.1357 115.374 55.3855C115.333 55.6313 115.269 55.8718 115.185 56.1037C115.102 56.3322 115.001 56.554 114.884 56.7672C114.842 56.8401 114.798 56.9122 114.754 56.9843C115.049 57.2248 115.314 57.4967 115.548 57.7963L115.552 57.798C115.714 58.009 115.863 58.2348 115.993 58.471C116.122 58.7064 116.23 58.9513 116.317 59.204C116.408 59.4628 116.477 59.7302 116.522 60.0064ZM11.5607 61.3907C10.8425 57.0017 8.73833 54.0551 3.9516 53.7946V65.7944H0.880859V50.3704H2.33546C5.87689 50.3704 11.1899 51.9283 13.0283 56.0924C15.0813 51.8302 19.9809 50.3695 23.6978 50.3695H25.1723V65.7944H22.0651V53.8007C17.908 54.0073 15.2089 57.0182 14.4942 61.3907H11.5607Z" fill="white"/>
</g>
<defs>
<clipPath id="clip0_120_936">
<rect width="249.237" height="15.6316" fill="white" transform="translate(0.880859 50.3687)"/>
</clipPath>
</defs>
</svg>
