<svg width="22" height="22" viewBox="0 0 22 22" fill="none" xmlns="http://www.w3.org/2000/svg">
<path fill-rule="evenodd" clip-rule="evenodd" d="M15.5364 4.64026C18.0421 7.16709 18.0421 11.2416 15.5364 13.7684L11.3889 17.941C11.1739 18.1574 10.8238 18.1574 10.6088 17.9411L6.46137 13.7693C3.95559 11.2425 3.95559 7.168 6.46137 4.64118C7.66113 3.431 9.29457 2.75017 10.9987 2.75C12.7028 2.74983 14.3364 3.43033 15.5364 4.64026ZM10.9789 11.3465C12.3925 11.3576 13.5489 10.2237 13.5655 8.81018C13.5737 7.38439 12.4247 6.22184 10.9989 6.21326C9.58529 6.21336 8.43788 7.3564 8.4324 8.76997C8.42691 10.1835 9.56541 11.3354 10.9789 11.3465Z" fill="#333333"/>
</svg>
