<svg width="32" height="32" viewBox="0 0 32 32" fill="none" xmlns="http://www.w3.org/2000/svg">
<path fill-rule="evenodd" clip-rule="evenodd" d="M22.5996 6.74947C26.2444 10.4249 26.2444 16.3514 22.5996 20.0268L16.5669 26.096C16.2541 26.4107 15.745 26.4107 15.4322 26.0961L9.39959 20.0281C5.75482 16.3528 5.75482 10.4262 9.39959 6.75081C11.1447 4.99055 13.5206 4.00025 15.9993 4C18.478 3.99975 20.8541 4.98957 22.5996 6.74947ZM15.9706 16.504C18.0266 16.5201 19.7087 14.8708 19.7329 12.8148C19.7447 10.7409 18.0735 9.04996 15.9996 9.03747C13.9435 9.03762 12.2745 10.7002 12.2665 12.7563C12.2586 14.8124 13.9146 16.4879 15.9706 16.504Z" fill="white"/>
</svg>
