<svg width="380" height="380" viewBox="0 0 380 380" fill="none" xmlns="http://www.w3.org/2000/svg">
<g opacity="0.4">
<path d="M284.795 124.941C282.294 88.3658 257.784 58.4408 221.668 58.4408C190.824 57.1656 163.778 78.8638 158.335 109.25C152.878 78.8765 125.835 57.1949 95.0013 58.4725C56.8588 58.4725 31.668 91.7225 31.668 131.132C31.668 194.085 95.9988 235.917 148.835 278.667" stroke="white" stroke-width="2" stroke-linecap="round" stroke-linejoin="round"/>
<path fill-rule="evenodd" clip-rule="evenodd" d="M286.932 237.041C297.978 221.208 295.617 199.647 281.406 186.58C272.983 178.956 261.821 175.088 250.487 175.864C239.153 176.641 228.623 181.996 221.319 190.697C191.805 220.226 204.757 271.257 208.652 315.337C252.732 319.216 303.779 332.183 333.292 302.67C341.993 295.366 347.348 284.835 348.124 273.501C348.901 262.167 345.032 251.005 337.409 242.582C324.341 228.364 302.774 225.996 286.932 237.041V237.041Z" stroke="white" stroke-width="2" stroke-linecap="round" stroke-linejoin="round"/>
</g>
</svg>
