<svg width="380" height="380" viewBox="0 0 380 380" fill="none" xmlns="http://www.w3.org/2000/svg">
<g opacity="0.4">
<path fill-rule="evenodd" clip-rule="evenodd" d="M116.5 279C112.891 231.431 75.3017 193.63 28 190C75.3017 186.37 112.891 148.569 116.5 101C120.109 148.569 157.698 186.37 205 190C157.698 193.63 120.109 231.431 116.5 279V279Z" stroke="white" stroke-width="2" stroke-linecap="round" stroke-linejoin="round"/>
<path fill-rule="evenodd" clip-rule="evenodd" d="M227.5 345C225.681 321.485 206.782 302.799 183 301C206.782 299.201 225.681 280.515 227.5 257C229.319 280.515 248.218 299.201 272 301C248.218 302.799 229.319 321.485 227.5 345Z" stroke="white" stroke-width="2" stroke-linecap="round" stroke-linejoin="round"/>
<path fill-rule="evenodd" clip-rule="evenodd" d="M227.5 35C225.681 58.5152 206.782 77.2011 183 79C206.782 80.7989 225.681 99.4848 227.5 123C229.319 99.4848 248.218 80.7989 272 79C248.218 77.2011 229.319 58.5152 227.5 35Z" stroke="white" stroke-width="2" stroke-linecap="round" stroke-linejoin="round"/>
</g>
</svg>
