<svg width="380" height="380" viewBox="0 0 380 380" fill="none" xmlns="http://www.w3.org/2000/svg">
<g opacity="0.4">
<path d="M146.885 333.814V292.141M146.885 333.814H132.002C128.714 333.814 126.049 331.148 126.049 327.861V290.652C126.049 273.391 140.042 259.397 157.304 259.397H200.465C217.727 259.397 231.72 273.391 231.72 290.652V327.861C231.72 331.148 229.055 333.814 225.767 333.814H210.884M146.885 333.814H210.884M210.884 333.814V292.141M203.442 214.003C203.442 227.566 192.447 238.561 178.885 238.561C165.322 238.561 154.327 227.566 154.327 214.003C154.327 200.44 165.322 189.446 178.885 189.446C192.447 189.446 203.442 200.44 203.442 214.003Z" stroke="white" stroke-width="2"/>
<path d="M293.852 300.327V248.652M293.852 300.327H307.624C314.2 300.327 319.531 294.996 319.531 288.42V246.806C319.531 225.402 302.285 208.05 281.012 208.05H227.82C225.598 208.05 223.42 208.239 221.301 208.603M293.852 300.327H250.695M284.555 152.982C284.555 169.832 271.061 183.492 254.416 183.492C237.771 183.492 224.277 169.832 224.277 152.982C224.277 136.131 237.771 122.471 254.416 122.471C271.061 122.471 284.555 136.131 284.555 152.982Z" stroke="white" stroke-width="2"/>
<path d="M69.9629 266.095V206.636M69.9629 266.095H50.8871C45.1332 266.095 40.4688 261.43 40.4688 255.676V204.513C40.4688 179.884 60.2762 159.919 84.71 159.919H145.805C155.036 159.919 163.606 162.768 170.698 167.642M69.9629 266.095H115.257M149.874 103.997C149.874 123.386 134.376 139.104 115.257 139.104C96.1393 139.104 80.641 123.386 80.641 103.997C80.641 84.6084 96.1393 68.8906 115.257 68.8906C134.376 68.8906 149.874 84.6084 149.874 103.997Z" stroke="white" stroke-width="2"/>
</g>
</svg>
