<svg width="28" height="16" viewBox="0 0 28 16" fill="none" xmlns="http://www.w3.org/2000/svg">
<path fill-rule="evenodd" clip-rule="evenodd" d="M15.3233 15.0558C15.3233 15.0558 15.8113 15.0038 16.0593 14.7399C16.2893 14.4998 16.2793 14.0438 16.2793 14.0438C16.2793 14.0438 16.2513 11.9198 17.2553 11.6058C18.2453 11.2978 19.5173 13.6598 20.8673 14.5698C21.8873 15.2558 22.6613 15.1058 22.6613 15.1058L26.2673 15.0558C26.2673 15.0558 28.1533 14.9418 27.2593 13.4878C27.1853 13.3678 26.7373 12.4078 24.5793 10.4418C22.3153 8.38185 22.6193 8.71585 25.3433 5.15185C27.0013 2.98184 27.6633 1.65784 27.4573 1.09184C27.2593 0.549842 26.0393 0.691843 26.0393 0.691843L21.9793 0.717844C21.9793 0.717844 21.6793 0.677844 21.4553 0.807844C21.2373 0.935844 21.0953 1.23584 21.0953 1.23584C21.0953 1.23584 20.4553 2.91584 19.5973 4.34384C17.7893 7.35585 17.0673 7.51584 16.7713 7.32784C16.0833 6.89184 16.2553 5.57585 16.2553 4.64184C16.2553 1.72184 16.7073 0.501843 15.3773 0.187843C14.9373 0.0838427 14.6113 0.0158426 13.4833 0.00384262C12.0333 -0.0121574 10.8073 0.00784198 10.1133 0.341842C9.65335 0.561842 9.29335 1.05784 9.51335 1.08784C9.78135 1.12184 10.3893 1.24784 10.7113 1.67784C11.1273 2.23384 11.1113 3.48184 11.1113 3.48184C11.1113 3.48184 11.3513 6.91785 10.5533 7.34585C10.0073 7.63785 9.25735 7.03985 7.64535 4.30584C7.09848 3.35641 6.61412 2.37232 6.19535 1.35984C6.19535 1.35984 6.07535 1.06984 5.85935 0.913843C5.59935 0.725843 5.23735 0.667842 5.23735 0.667842L1.37935 0.691843C1.37935 0.691843 0.799346 0.707843 0.587346 0.955843C0.399346 1.17584 0.573346 1.62984 0.573346 1.62984C0.573346 1.62984 3.59335 8.56585 7.01335 12.0618C10.1493 15.2658 13.7093 15.0558 13.7093 15.0558H15.3233Z" fill="white"/>
</svg>
