<svg width="28" height="20" viewBox="0 0 28 20" fill="none" xmlns="http://www.w3.org/2000/svg">
<path d="M11.2 14.2877V5.71232L18.48 10L11.2 14.2877Z" fill="black"/>
<path d="M27.4093 3.12245C27.25 2.51841 26.9379 1.96767 26.5045 1.52534C26.071 1.08302 25.5313 0.764629 24.9394 0.602041C22.7595 1.40246e-07 14 0 14 0C14 0 5.24047 1.40246e-07 3.06059 0.602041C2.46866 0.764629 1.92896 1.08302 1.49551 1.52534C1.06205 1.96767 0.750049 2.51841 0.590721 3.12245C0.183688 5.39109 -0.0138337 7.6937 0.000752395 10C-0.0138337 12.3063 0.183688 14.6089 0.590721 16.8776C0.750049 17.4816 1.06205 18.0323 1.49551 18.4747C1.92896 18.917 2.46866 19.2354 3.06059 19.398C5.24047 20 14 20 14 20C14 20 22.7595 20 24.9394 19.398C25.5313 19.2354 26.071 18.917 26.5045 18.4747C26.9379 18.0323 27.25 17.4816 27.4093 16.8776C27.8163 14.6089 28.0138 12.3063 27.9992 10C28.0138 7.6937 27.8163 5.39109 27.4093 3.12245ZM11.2002 14.2857V5.71429L18.4698 10L11.2002 14.2857Z" fill="white"/>
</svg>
