<svg width="154" height="63" viewBox="0 0 154 63" fill="none" xmlns="http://www.w3.org/2000/svg">
<path d="M154 52.1973H0V52.9656H154V52.1973Z" fill="#D0041C"/>
<path d="M63.0122 4.46851V24.255H64.0755C64.0755 24.255 63.2603 17.1631 66.8634 11.4541C70.4665 5.74506 78.9368 6.19421 78.9368 6.19421V35.7439L71.0572 35.6612C70.3803 34.2434 69.777 32.7915 69.2497 31.3115C66.5917 24.976 68.6945 24.9642 70.6437 25.307C72.9355 25.7207 72.8528 31.5479 72.8528 31.5479L73.4317 31.7134V23.8413C72.7255 23.5497 71.9819 23.3587 71.2226 23.274C69.996 23.2804 68.7773 23.4717 67.6077 23.8413C66.8245 24.2448 66.1336 24.8067 65.579 25.4915C65.0244 26.1763 64.6181 26.969 64.3859 27.8192C64.1538 28.6694 64.1008 29.5587 64.2304 30.4305C64.36 31.3023 64.6693 32.1377 65.1387 32.8835C62.3507 33.7818 60.4133 37.6115 60.4133 37.6115L46.2372 1.64355C42.894 10.6385 34.6245 32.9072 30.7143 43.0841C30.0313 44.7552 28.9956 46.2591 27.6782 47.4929C25.6109 49.6914 21.5234 49.3013 21.5234 49.3013L21.6061 50.6961H36.0067V49.3841C31.175 49.2186 31.8248 47.1619 31.8248 45.8381C31.8248 44.5143 35.1089 37.2214 35.1089 37.2214H51.0334C55.05 46.5709 54.4002 46.6773 54.0695 48.0603C53.7387 49.4432 50.7026 49.3723 50.7026 49.3723V50.5543H72.2031L73.9279 54.9867H78.7714L77.0466 50.4715L93.1247 50.5543V49.3013C87.4661 49.1359 87.5488 46.0154 87.5488 46.0154V6.19421C87.5488 6.19421 96.0781 5.94599 99.4449 10.9222C102.812 15.8983 102.398 24.1368 102.398 24.1368H103.391V4.46851H63.0122ZM35.5578 35.6494L43.0475 15.2955L50.5963 35.6494H35.5578ZM62.835 44.0888C60.6496 36.9968 65.8238 34.4674 65.8238 34.4674L71.8133 49.455C71.8133 49.455 64.9024 50.8261 62.835 44.0888ZM75.8298 47.8948L71.7069 36.9614C71.7069 36.9614 77.7554 36.4649 79.1376 40.9565C80.5198 45.4481 75.818 47.8948 75.818 47.8948H75.8298Z" fill="#D0041C"/>
<path d="M148.307 41.0621C148.307 41.0621 139.127 47.1494 137.544 47.4331C135.961 47.7167 136.883 44.5608 136.883 44.5608C138.466 44.5608 140.994 42.5751 141.608 41.0149C141.69 40.8436 141.726 40.6541 141.713 40.4648C141.7 40.2754 141.638 40.0927 141.533 39.9344C141.429 39.7762 141.285 39.6477 141.116 39.5615C140.947 39.4754 140.758 39.4345 140.569 39.4428C136.257 39.2301 134.012 45.1755 134.012 45.1755C133.698 45.4259 133.319 45.5821 132.92 45.626C132.521 45.6699 132.117 45.5998 131.756 45.4237C128.283 43.2961 136.635 33.6038 136.635 33.6038C137.544 29.3959 136.836 29.3486 136.836 29.3486C133.622 30.2115 129.606 39.6319 129.606 39.6319C122.518 43.2725 122.825 44.0762 122.825 44.0762C121.147 45.3764 118.572 45.7074 119.045 44.8918C119.517 44.0762 119.375 41.5468 117.71 42.1614C116.044 42.776 112.984 46.1329 112.441 45.991C111.898 45.8492 113.114 44.9391 113.114 44.9391C113.882 44.2181 116.658 42.2205 118.419 40.4475C119.706 39.2655 119.931 37.9181 118.95 38.0835C115.512 38.7336 107.385 46.1211 106.57 45.9319C105.755 45.7428 106.9 43.9226 106.9 43.9226C106.9 43.9226 108.377 42.8706 106.806 41.3931C105.837 40.427 104.926 39.4048 104.077 38.3317C102.6 36.7479 102.151 37.8353 101.254 38.5209C100.072 39.4783 100.828 39.7029 100.828 39.7029L102.364 41.2394C96.5282 47.1376 96.8708 44.3599 96.8708 44.3599L100.179 35.0576C100.601 35.0544 101.023 35.0781 101.443 35.1286C101.797 35.1995 102.364 34.9158 102.624 33.6511C102.884 32.3863 101.147 32.7291 101.147 32.7291L101.36 31.9135C101.23 31.5671 101.01 31.2612 100.724 31.0267C100.438 30.7922 100.095 30.6374 99.7297 30.5779C99.0327 30.6488 98.5483 32.7646 98.5483 32.7646L92.9842 32.9064C91.0468 33.7575 92.429 35.1167 92.429 35.1167H97.4024C93.185 46.6057 93.4803 47.9413 95.0397 48.4732C96.5991 49.0051 103.12 42.0077 103.12 42.0077L104.467 43.3552C104.408 44.5859 104.198 45.8047 103.841 46.9839C103.368 48.0359 103.982 48.1659 103.982 48.1659L105.412 48.0713L109.866 45.0809C109.866 45.0809 107.81 47.4449 109.582 48.3314C111.354 49.2179 114.071 46.712 114.071 46.712C114.071 46.712 116.434 43.698 116.517 45.5301C116.479 46.0336 116.622 46.5341 116.918 46.943C117.214 47.3518 117.645 47.6426 118.135 47.764C119.35 47.2822 120.533 46.7256 121.679 46.0974C121.559 46.3351 121.496 46.597 121.492 46.8632C121.489 47.1293 121.547 47.3926 121.661 47.6332C121.775 47.8737 121.942 48.085 122.15 48.251C122.358 48.4171 122.601 48.5335 122.86 48.5914C124.916 49.2651 127.976 45.14 127.976 45.14C128.506 46.0924 129.382 46.8034 130.423 47.1249C131.464 47.4463 132.589 47.3535 133.563 46.8657C133.542 47.2509 133.613 47.6356 133.769 47.9882C133.926 48.3407 134.164 48.6509 134.464 48.8933C134.764 49.1357 135.117 49.3034 135.495 49.3824C135.872 49.4614 136.263 49.4496 136.635 49.3479C138.537 49.0642 148.342 42.2559 148.342 42.2559L148.307 41.0621ZM139.317 41.4877C139.458 42.3505 137.686 43.0242 137.686 43.0242C137.166 43.0242 139.175 40.6366 139.317 41.4877ZM125.14 45.8019C125.471 44.3244 128.684 41.8777 128.684 41.8777C128.696 43.1661 125.223 45.8019 125.223 45.8019H125.14Z" fill="#004B9A"/>
<path d="M23.1783 12.4345C24.3596 9.51501 24.8676 3.81782 25.1984 0H25.8363V15.5904C25.6739 16.5059 25.2345 17.3494 24.5774 18.0068C23.9203 18.6643 23.0773 19.104 22.1623 19.2664C18.9018 19.8574 7.63178 19.2664 7.0293 19.2664V18.8054C7.0293 18.8054 16.4801 18.9473 20.0241 16.3705C21.4083 15.3643 22.4975 14.0051 23.1783 12.4345Z" fill="#004B9A"/>
<path d="M11.7186 9.12436C10.6317 12.0321 10.0174 17.7292 9.69847 21.5471H9.06055L9.1078 5.90935C9.26621 4.99415 9.70286 4.15009 10.3582 3.49225C11.0136 2.83442 11.8558 2.39481 12.77 2.23337C16.0305 1.64237 27.3005 2.23337 27.903 2.23337V2.69434C27.903 2.69434 18.4522 2.56432 14.9082 5.12924C13.5047 6.14915 12.4027 7.52949 11.7186 9.12436Z" fill="#D0041C"/>
<path d="M13.4902 62.7996V56.8896H14.8724V59.2536H19.1961V56.8896H20.5901V62.7996H19.1961V60.282H14.8724V62.8469L13.4902 62.7996Z" fill="black"/>
<path d="M23.627 62.7996V56.8896H25.0091V62.7996H23.627Z" fill="black"/>
<path d="M26.084 60.2816V59.0996H28.7775V60.2816H26.084Z" fill="black"/>
<path d="M31.8965 62.7996V56.8896H37.9213V57.918H33.255V59.4546H35.7595V60.542H33.255V62.7996H31.8965Z" fill="black"/>
<path d="M39.6113 62.7996V56.8896H40.9935V62.7996H39.6113Z" fill="black"/>
<path d="M52.832 62.7996V56.8896H54.226V59.2536H58.5497V56.8896H59.9437V62.7996H58.5497V60.282H54.226V62.8469L52.832 62.7996Z" fill="black"/>
<path d="M62.9883 62.7996V56.8896H64.3586V62.7996H62.9883Z" fill="black"/>
<path d="M72.8643 57.9171H68.517V61.6877H72.8407V60.352H70.608V59.3355H74.152V61.3922C74.1961 61.7865 74.0907 62.183 73.8567 62.5033C73.5115 62.7412 73.0919 62.8461 72.6753 62.7988H68.6351C68.2186 62.8461 67.799 62.7412 67.4538 62.5033C67.2197 62.183 67.1143 61.7865 67.1584 61.3922V58.2481C67.1138 57.8575 67.2194 57.4645 67.4538 57.1488C67.797 56.9058 68.2171 56.7965 68.6351 56.8415H72.7344C73.1513 56.7885 73.5729 56.894 73.9157 57.137C74.0368 57.284 74.1265 57.4542 74.1794 57.6371C74.2322 57.8201 74.247 58.0119 74.2229 58.2008V58.3308L72.8762 58.5791L72.8643 57.9171Z" fill="black"/>
<path d="M77.2734 62.7996V56.8896H78.6556V59.2536H82.9793V56.8896H84.3733V62.7996H82.9793V60.282H78.6556V62.8469L77.2734 62.7996Z" fill="black"/>
<path d="M85.4355 60.2816V59.0996H88.1172V60.2816H85.4355Z" fill="black"/>
<path d="M91.2246 62.7996V56.8896H97.3203V57.918H92.595V59.2418H95.3475V60.2583H92.6068V61.7358H97.3322V62.9178L91.2246 62.7996Z" fill="black"/>
<path d="M99.9062 62.799V56.8891H100.851L105.033 60.435C105.171 60.532 105.301 60.6387 105.423 60.7542L105.718 61.0851C105.718 60.9078 105.718 60.7778 105.718 60.6833C105.718 60.5887 105.718 60.4823 105.718 60.3759C105.718 60.2696 105.718 60.175 105.718 60.0568V56.8418H106.912V62.7517H105.967L101.596 59.0994L101.312 58.8394L101.099 58.603C101.099 58.6739 101.099 58.7684 101.099 58.8748C101.099 58.9812 101.099 59.0758 101.099 59.1349V62.7754L99.9062 62.799Z" fill="black"/>
<path d="M109.947 62.7986V56.8887H113.775C114.683 56.83 115.581 57.103 116.303 57.657C116.602 57.9313 116.835 58.2689 116.986 58.6453C117.138 59.0216 117.203 59.427 117.177 59.8318C117.183 60.3522 117.065 60.8666 116.835 61.3329C116.64 61.6883 116.364 61.9924 116.029 62.2204C115.695 62.4485 115.311 62.594 114.909 62.645C114.418 62.7367 113.919 62.7763 113.42 62.7631L109.947 62.7986ZM111.329 61.6166H113.125C113.829 61.6804 114.535 61.5234 115.145 61.1675C115.355 61.0007 115.521 60.7857 115.63 60.5409C115.739 60.296 115.788 60.0285 115.771 59.7609C115.791 59.5084 115.756 59.2547 115.671 59.0164C115.585 58.778 115.451 58.5605 115.275 58.378C114.866 58.0376 114.341 57.8683 113.81 57.9052H111.329V61.6166Z" fill="black"/>
<path d="M132.83 57.9179H129.086V61.6884H132.83V60.4001L134.213 60.6837V61.3929C134.253 61.7887 134.144 62.1854 133.905 62.504C133.562 62.745 133.141 62.8502 132.724 62.7995H129.18C128.764 62.8427 128.346 62.7381 127.999 62.504C127.765 62.1837 127.659 61.7872 127.703 61.3929V58.2488C127.659 57.8582 127.764 57.4652 127.999 57.1496C128.342 56.9065 128.762 56.7972 129.18 56.8423H132.724C133.142 56.7938 133.564 56.9034 133.905 57.1496C134.144 57.4635 134.254 57.8567 134.213 58.2488V58.8162L132.83 59.0408V57.9179Z" fill="black"/>
<path d="M137.203 62.7996V56.8896H138.585V62.7996H137.203Z" fill="black"/>
<path d="M45.2327 59.1581C44.9036 60.4143 44.7096 61.7021 44.6539 62.9995H44.4648V58.177C44.4973 57.8939 44.6171 57.6279 44.8077 57.4161C44.9982 57.2042 45.25 57.0571 45.5281 56.995C46.9756 56.8988 48.4279 56.8988 49.8754 56.995V57.1369C49.8754 57.1369 47.1465 57.1369 46.1305 57.8933C45.7223 58.2258 45.412 58.6629 45.2327 59.1581Z" fill="#D0041C"/>
<path d="M124.04 60.7188C124.365 59.5624 124.56 58.3729 124.619 57.1729H124.808V61.6644C124.762 61.9287 124.635 62.172 124.444 62.3606C124.254 62.5492 124.009 62.6736 123.744 62.7164C122.268 62.7865 120.788 62.7628 119.314 62.6455V62.5154C119.314 62.5154 122.043 62.5154 123.059 61.8181C123.483 61.5514 123.823 61.1703 124.04 60.7188Z" fill="#004B9A"/>
</svg>
