<svg width="190" height="45" viewBox="0 0 190 45" fill="none" xmlns="http://www.w3.org/2000/svg">
<g clip-path="url(#clip0_120_767)">
<path fill-rule="evenodd" clip-rule="evenodd" d="M54.9621 2.19636H67.519V16.0142H54.9621V2.19636ZM67.519 19.6005V42.3842H54.9621V19.6005H67.519ZM142.551 28.9882L153.564 29.0937C153.564 31.0978 153.976 32.3636 154.697 32.891C155.314 33.3129 156.035 33.5239 156.961 33.5239C157.887 33.6294 160.769 33.6294 165.607 33.7348C170.65 33.7348 173.738 33.7348 174.664 33.6294C175.693 33.6294 176.517 33.4184 177.031 33.2074C177.958 32.7855 178.369 31.8362 178.369 30.1485C178.369 28.9882 178.061 28.1444 177.443 27.7225C176.826 27.3006 175.59 27.0896 173.635 27.0896C172.194 27.0896 169.003 26.9841 164.269 26.7732C159.431 26.5622 156.241 26.3513 154.697 26.3513C151.815 26.2458 149.653 25.9293 148.109 25.5074C146.566 25.0855 145.33 24.2417 144.507 23.2923C143.066 21.6047 142.243 18.6512 142.243 14.643C142.243 10.1073 143.066 6.94295 144.816 5.04431C146.051 3.56759 148.109 2.61828 150.683 2.30184C153.359 1.87992 158.814 1.66896 166.945 1.66896C172.709 1.66896 176.723 1.87992 179.09 2.19636C182.692 2.72376 185.163 3.77855 186.501 5.25527C187.839 6.83747 188.559 9.36899 188.559 13.0608C188.559 13.3772 188.559 14.0101 188.559 14.9594H177.031C177.031 13.7991 176.928 13.0608 176.723 12.6389C176.62 12.2169 176.311 11.9005 175.899 11.5841C175.385 11.2676 174.458 11.0567 173.223 10.9512C171.885 10.8457 169.209 10.8457 164.989 10.8457C159.946 10.8457 156.858 11.0567 155.726 11.3731C154.594 11.6895 154.079 12.6389 154.079 14.1156C154.079 15.4868 154.594 16.4361 155.726 16.7526C156.652 16.9635 160.872 17.28 168.386 17.4909C174.767 17.7019 178.987 17.9129 181.045 18.1238C183.207 18.4403 184.854 18.8622 186.192 19.6005C187.633 20.4444 188.662 21.7101 189.28 23.2923C189.897 24.8745 190.206 27.0896 190.206 29.9376C190.206 33.7348 189.691 36.5828 188.765 38.376C188.044 39.7472 187.015 40.6965 185.677 41.4349C184.339 42.0678 182.486 42.5952 180.016 42.8061C177.443 43.0171 172.606 43.1226 165.607 43.1226C159.74 43.1226 155.314 42.9116 152.535 42.7006C149.756 42.3842 148.109 41.8568 146.668 41.013C143.581 39.2198 142.757 36.4773 142.757 32.9965L142.551 28.9882ZM126.495 2.19636H139.052V16.0142H126.495V2.19636V2.19636ZM139.052 19.6005V42.3842H126.495V19.6005H139.052ZM96.9556 19.6005H122.79C122.79 20.2334 122.893 20.6553 122.893 20.6553C122.893 26.3513 122.893 30.5704 122.584 33.4184C122.172 38.0595 119.393 40.9075 114.762 41.8568C112.703 42.2787 110.439 42.5952 107.866 42.7006C105.293 42.8061 101.278 42.9116 96.0293 42.9116C89.2362 42.9116 84.5016 42.7006 81.7226 42.3842C78.9437 41.9623 76.6793 41.2239 75.1354 40.1691C74.0032 39.4308 73.1798 38.376 72.5623 37.2157C71.9447 36.0554 71.533 34.4732 71.3272 32.4691C71.1213 30.6759 71.0184 26.9841 71.0184 21.6047C71.0184 17.9129 71.1213 15.1704 71.3272 13.2717C71.533 11.3731 71.9447 9.79091 72.4594 8.31419C73.5915 5.25527 75.9588 3.35663 79.6641 2.61828C83.6782 1.87992 89.8537 1.56348 98.1907 1.56348C103.131 1.56348 107.042 1.66896 109.924 1.9854C112.806 2.19636 115.173 2.61828 117.026 3.25115C120.011 4.20047 121.863 6.31007 122.481 9.47447C122.79 11.0567 122.996 13.2717 122.996 16.0142H111.056C111.056 14.8539 110.953 14.1156 110.85 13.6937C110.748 13.2717 110.542 12.9553 110.13 12.6389C109.41 12.1115 108.072 11.795 105.91 11.6895C103.749 11.6895 100.867 11.6895 96.9556 11.6895C92.8386 11.6895 89.8537 11.795 88.104 12.006C86.3543 12.2169 85.1192 12.5334 84.5016 13.0608C83.8841 13.5882 83.3694 14.5375 83.1636 15.8033C82.9577 17.069 82.8548 19.1786 82.8548 22.2375C82.8548 25.6129 82.9577 28.0389 83.1636 29.3047C83.3694 30.6759 83.7811 31.6252 84.5016 32.1526C85.1192 32.68 86.0455 32.9965 87.0748 33.102C88.104 33.2074 91.3976 33.3129 96.9556 33.4184C102.411 33.4184 105.704 33.3129 106.836 33.2074C107.969 33.102 108.895 32.9965 109.615 32.68C110.233 32.4691 110.645 32.0472 110.85 31.4143C111.056 30.7814 111.262 29.9376 111.262 28.7773C111.262 28.5663 111.262 28.2499 111.262 27.617H96.9556V19.6005ZM11.7335 32.1526H28.4074C31.4951 32.1526 33.7595 32.0472 35.2004 31.8362C36.6414 31.6252 37.6706 31.3088 38.2882 30.7814C38.9057 30.254 39.4204 29.3047 39.6262 28.0389C39.935 26.7732 40.0379 24.98 40.0379 22.4485C40.0379 19.917 39.935 18.1238 39.7291 16.8581C39.5233 15.5923 39.1116 14.643 38.494 14.0101C37.8765 13.2717 36.8472 12.8498 35.6121 12.6389C34.377 12.4279 31.9068 12.3224 28.3044 12.3224H11.7335V32.1526ZM0 42.3842V2.19636H28.3044C33.3478 2.19636 36.6414 2.19636 38.1853 2.30184C39.7291 2.40732 41.3759 2.61828 43.0227 2.93472C46.9339 3.77855 49.507 5.99363 50.7421 9.79091C51.1538 11.1621 51.4626 12.7443 51.6685 14.3265C51.7714 15.9087 51.8743 18.4403 51.8743 21.7101C51.8743 25.2965 51.9772 28.0389 51.7714 29.8321C51.5655 31.7307 51.2568 33.3129 50.7421 34.8951C49.61 38.376 46.9339 40.591 43.3315 41.4349C41.5818 41.8568 39.8321 42.0678 37.8765 42.1732C35.9209 42.2787 32.7302 42.3842 28.4074 42.3842H0V42.3842Z" fill="#009AD9"/>
</g>
<defs>
<clipPath id="clip0_120_767">
<rect width="190" height="45" fill="white"/>
</clipPath>
</defs>
</svg>
