<svg width="210" height="57" viewBox="0 0 210 57" fill="none" xmlns="http://www.w3.org/2000/svg">
<path d="M171.372 16.3271H165.186C163.996 16.2797 162.833 16.6878 161.936 17.4676C161.039 18.2474 160.476 19.3397 160.363 20.5198L157.664 34.4531C157.181 36.9865 157.919 38.6585 160.884 38.6585H167.108C168.309 38.7318 169.491 38.3318 170.399 37.5449C171.306 36.758 171.866 35.6474 171.957 34.4531L174.744 20.5198C175.19 18.0498 174.439 16.3271 171.423 16.3271H171.372ZM169.806 21.4571L167.414 33.5791C167.415 33.6789 167.397 33.7781 167.36 33.8709C167.324 33.9638 167.269 34.0485 167.199 34.1203C167.129 34.192 167.046 34.2494 166.954 34.2891C166.862 34.3288 166.763 34.3501 166.663 34.3518H163.112C162.615 34.3518 162.501 34.1618 162.564 33.5918L164.932 21.4698C165.097 20.9251 165.352 20.6718 165.81 20.6718H169.272C169.717 20.6718 169.946 20.9251 169.857 21.4698L169.806 21.4571ZM152.497 34.3391L156.035 16.3271H146.363C145.151 16.2394 143.953 16.6302 143.029 17.415C142.105 18.1997 141.528 19.3151 141.424 20.5198L137.517 34.3391H135.494L134.603 38.7091H153.057L153.935 34.3391H152.497ZM150.384 20.6591L147.635 34.3391H142.544L146.057 21.4571C146.057 21.2455 146.142 21.0425 146.292 20.8929C146.442 20.7432 146.646 20.6591 146.859 20.6591H150.372H150.384ZM132.566 38.7091L133.164 16.4665H126.648L115.881 38.7851H121.074L122.868 34.6558H127.526L127.183 38.7851L132.566 38.7091ZM128.532 22.2425L127.832 30.9698H124.446L128.264 22.2425H128.532ZM118.694 20.5198C119.203 18.0498 118.439 16.3271 115.435 16.3271H105.254L100.837 38.7091H105.508L106.781 32.2238H112.381C115.372 32.2238 116.606 30.4251 117.166 27.9551L118.694 20.5198ZM113.819 21.4571L112.674 27.0431C112.534 27.6511 112.254 27.8411 111.757 27.8411H107.634L109.123 20.6591H113.272C113.768 20.6591 113.946 20.9125 113.883 21.4571H113.819ZM100.112 20.5198C100.595 18.0498 99.8445 16.3271 96.8281 16.3271H90.7063C89.4774 16.2341 88.2602 16.6191 87.3107 17.4011C86.3613 18.183 85.7535 19.301 85.6154 20.5198L82.9426 34.4531C82.4972 36.9865 83.2226 38.6585 86.1754 38.6585H92.3608C93.5684 38.7422 94.7602 38.3469 95.676 37.559C96.5917 36.771 97.1569 35.6545 97.2481 34.4531L100.112 20.5198ZM95.2117 21.4571L92.9081 33.5791C92.8711 33.7982 92.755 33.9964 92.5816 34.1363C92.4081 34.2763 92.1894 34.3484 91.9663 34.3391H88.5045C88.0463 34.3391 87.8936 34.1491 87.9572 33.5791L90.3626 21.4571C90.3626 20.9125 90.6808 20.6591 91.2281 20.6591H94.639C95.059 20.6591 95.3263 20.9125 95.1863 21.4571H95.2117ZM78.4372 34.3391L81.9626 16.3271H72.3154C71.1172 16.2633 69.9409 16.6647 69.034 17.4467C68.1272 18.2287 67.5606 19.3304 67.4536 20.5198L63.4699 34.3391H61.4717L60.5554 38.7091H79.0354L79.9008 34.3391H78.4372ZM76.3626 20.6591L73.639 34.3391H68.5481L72.0608 21.4571C72.0574 21.3535 72.075 21.2503 72.1125 21.1537C72.1499 21.057 72.2066 20.9688 72.279 20.8943C72.3515 20.8199 72.4382 20.7607 72.5341 20.7203C72.63 20.6799 72.7331 20.6591 72.8372 20.6591H76.3626ZM60.4154 27.7398C60.8863 25.2065 60.1099 23.4331 57.119 23.4331H51.6081L53.0336 16.3271H48.2354L43.8317 38.7091H54.1536C55.3625 38.793 56.5557 38.3981 57.4735 37.6104C58.3912 36.8228 58.9591 35.7062 59.0536 34.5038L60.4154 27.7398ZM55.5027 28.3098L54.5099 33.7691C54.4847 34.0099 54.3704 34.2326 54.1892 34.3942C54.0081 34.5557 53.7731 34.6444 53.5299 34.6431H49.4827L50.9081 27.4991H54.9808C55.4517 27.4991 55.6299 27.7271 55.5027 28.2971V28.3098ZM39.199 38.7091L43.5772 16.4665H33.3954C32.1866 16.3855 30.994 16.7791 30.0733 17.5629C29.1526 18.3466 28.577 19.4581 28.4699 20.6591L23.239 38.7725H28.3299L33.039 21.5205C33.0373 21.4173 33.0561 21.3149 33.0942 21.2189C33.1323 21.123 33.189 21.0355 33.2611 20.9614C33.3332 20.8873 33.4193 20.8281 33.5144 20.7871C33.6095 20.7461 33.7118 20.7241 33.8154 20.7225H38.0027L34.3627 38.7091H39.199ZM24.0027 20.5198C24.4736 18.0498 23.7481 16.3271 20.7954 16.3271H11.6063L10.7408 20.6591H18.5681C19.039 20.6591 19.179 20.9125 19.1154 21.4571L18.1227 26.5998H13.2481L13.999 23.0405L2.72266 28.4111H11.0972L10.3717 31.9578L17.8172 28.4365L16.8245 33.5031C16.7957 33.7284 16.68 33.9337 16.5019 34.0755C16.3237 34.2174 16.0971 34.2847 15.8699 34.2631H8.05538L7.22811 38.6331H16.4427C17.6287 38.7168 18.7997 38.3292 19.6991 37.5552C20.5985 36.7812 21.1529 35.6839 21.2408 34.5038V34.4278L24.0027 20.5198ZM174.655 33.5538L173.65 38.7091H178.384L179.403 33.5538H174.655ZM207.454 23.0405H204.004L201.663 35.0105C201.671 35.0661 201.666 35.1229 201.649 35.1765C201.631 35.23 201.602 35.2788 201.562 35.3192C201.523 35.3596 201.475 35.3905 201.422 35.4094C201.368 35.4284 201.312 35.4349 201.255 35.4285H198.71C198.481 35.4285 198.404 35.3271 198.468 35.0105L200.759 23.0405H197.272L194.841 35.5298C194.472 37.4045 194.968 38.7091 197.246 38.7091H201.204C201.658 38.7436 202.113 38.6887 202.545 38.5474C202.977 38.4061 203.376 38.1812 203.72 37.8858C204.065 37.5903 204.347 37.2301 204.551 36.8258C204.754 36.4214 204.876 35.981 204.908 35.5298L207.454 23.0405ZM191.43 23.0405H184.315L181.324 38.7091H184.544L185.474 34.2505H187.09L187.79 38.7091H191.392L190.437 34.0478C191.053 33.839 191.596 33.458 192 32.9503C192.404 32.4426 192.652 31.8297 192.715 31.1851L193.746 25.9791C194.103 24.2565 193.568 23.0025 191.468 23.0025L191.43 23.0405ZM190.297 26.5998L189.495 30.3998C189.406 30.8305 189.215 30.9571 188.872 30.9571H186.008L187.039 25.8905H189.89C190.221 25.8905 190.348 26.0805 190.31 26.4605" fill="#C10230"/>
</svg>
