<svg width="194" height="40" viewBox="0 0 194 40" fill="none" xmlns="http://www.w3.org/2000/svg">
<g clip-path="url(#clip0_120_904)">
<path d="M51.285 12.6507C54.643 12.6507 55.8641 14.7986 56.0167 15.4123H59.0694C58.7642 14.1849 57.2378 9.88907 51.285 9.88907C46.7059 9.88907 43.1953 13.5712 43.1953 18.4807C43.1953 23.3903 46.7059 26.919 51.4377 26.919C57.2378 26.919 58.9168 22.6231 59.0694 21.5492H56.1694C55.8641 22.0094 54.643 24.1574 51.4377 24.1574C48.3849 24.1574 46.248 21.7026 46.248 18.4807C46.248 15.2589 48.3849 12.6507 51.285 12.6507ZM65.4801 22.6231V10.3493H62.5801V26.6121H65.4801L74.9436 14.1849V26.6121H77.8436V10.3493H74.9436L65.4801 22.6231ZM80.5911 12.9575H87.1544V26.6121H90.0545V12.9575H96.6178V10.3493H80.5911V12.9575ZM102.265 22.6231V10.3493H99.3653V26.6121H102.265L111.729 14.1849V26.6121H114.629V10.3493H111.729L102.265 22.6231ZM120.887 19.4013C120.429 23.0834 119.971 24.1574 117.834 24.1574H117.376V26.7655H118.292C121.65 26.7655 123.024 24.4642 123.482 19.5547L124.092 12.9575H130.808V26.6121H133.708V10.3493H121.65L120.887 19.4013ZM141.34 22.6231V10.3493H138.44V26.6121H141.34L150.804 14.1849V26.6121H153.704V10.3493H150.804L141.34 22.6231ZM170.494 16.9465H161.488V10.3493H158.435V26.6121H161.488V19.7081H170.494V26.6121H173.546V10.3493H170.494V16.9465ZM184.231 18.1739L193.694 10.3493H189.573L181.025 17.4068V10.3493H178.125V26.6121H181.025V19.0944L190.031 26.6121H194.152L184.231 18.1739ZM26.7107 31.6751L9.00492 35.0504C4.42585 35.8175 0.304688 32.2888 0.304688 27.6861V8.20142C0.304688 3.59875 4.42585 0.0700323 9.00492 0.990567L26.7107 4.21244C29.3055 4.82613 31.2897 7.12747 31.2897 9.73565V26.1519C31.2897 28.9135 29.3055 31.2148 26.7107 31.6751Z" fill="#FF5200"/>
<path d="M9.92156 24.7711V11.7302C9.92156 11.1165 10.3795 10.6562 10.99 10.8096L23.964 12.6507V9.73567L11.6006 7.8946C9.15838 7.43433 7.02148 9.42882 7.02148 11.8836V24.7711C7.02148 27.2258 9.15838 29.0669 11.6006 28.6066L23.964 26.7656V23.8505L10.99 25.6916C10.3795 25.845 9.92156 25.3848 9.92156 24.7711Z" fill="white"/>
<path d="M44.4164 32.2896H47.927V37.0457H47.1638V33.2102H45.1796L45.0269 35.0512C44.8743 36.432 44.4164 37.1991 43.5006 37.1991H43.1953V36.432H43.3479C43.9585 36.432 44.1111 36.1252 44.1111 35.0512L44.4164 32.2896ZM50.9797 37.0457L48.8428 32.443H49.9113L51.4376 35.9718L53.1166 32.443H54.0324L50.8271 39.3471H49.9113L50.9797 37.0457ZM58.1536 35.3581H56.7799C55.5588 35.5115 54.7956 34.8978 54.7956 33.6704V32.2896H55.7114V33.517C55.7114 34.2841 55.8641 34.591 56.7799 34.591H58.1536V32.2896H59.0694V37.0457H58.1536V35.3581ZM61.359 32.2896V36.2786H63.6485V32.2896H64.5643V36.2786H66.7012V32.2896H67.617V37.1991H60.5958V32.2896H61.359ZM73.5698 34.8978H69.6013C69.7539 35.6649 70.3645 36.432 71.2803 36.432C72.1961 36.432 72.654 35.9718 72.654 35.8183H73.5698C73.4172 36.1252 72.8066 37.1991 71.2803 37.1991C69.7539 37.1991 68.8381 36.1252 68.8381 34.7444C68.8381 33.2102 69.7539 32.2896 71.1277 32.2896C72.654 32.2896 73.5698 33.3636 73.5698 34.8978ZM69.7539 34.1307H72.654C72.5014 33.3636 71.8908 33.0567 71.1277 33.0567C70.5171 33.0567 69.9066 33.3636 69.7539 34.1307ZM79.2173 34.8978H75.4015C75.4015 35.6649 76.012 36.432 76.9278 36.432C77.8436 36.432 78.3015 35.9718 78.3015 35.8183H79.2173C79.2173 36.1252 78.6068 37.1991 76.9278 37.1991C75.5541 37.1991 74.4856 36.1252 74.4856 34.7444C74.4856 33.2102 75.5541 32.2896 76.9278 32.2896C78.3015 32.2896 79.2173 33.3636 79.2173 34.8978ZM75.4015 34.1307H78.3015C78.1489 33.3636 77.5384 33.0567 76.9278 33.0567C76.1646 33.0567 75.5541 33.3636 75.4015 34.1307ZM81.9648 38.5799V36.2786H82.5753C82.8806 35.9718 83.0332 35.3581 83.1859 34.1307L83.3385 32.443H86.8491V36.2786H87.6123V38.5799H86.8491V37.0457H82.728V38.5799H81.9648ZM85.9333 33.2102H83.9491V34.1307C83.7964 35.3581 83.6438 35.9718 83.3385 36.2786H85.9333V33.2102ZM89.4439 32.2896H92.9546V37.0457H92.1914V33.2102H90.2071L90.0545 35.0512C89.9018 36.432 89.4439 37.1991 88.5281 37.1991H88.2229V36.432H88.3755C88.986 36.432 89.1387 36.1252 89.2913 35.0512L89.4439 32.2896ZM97.6863 37.1991V35.3581H96.3125L95.0915 37.1991H94.1756L95.3967 35.3581C94.6336 35.0512 94.3283 34.591 94.3283 33.8238C94.3283 33.0567 94.7862 32.2896 96.0073 32.2896H98.6021V37.0457H97.6863V37.1991ZM97.6863 34.591V33.2102H96.0073C95.5494 33.2102 95.2441 33.3636 95.2441 33.8238C95.2441 34.2841 95.5494 34.591 96.0073 34.591H97.6863ZM103.792 33.2102H101.807V32.2896H106.539V33.2102H104.555V37.1991H103.792V33.2102ZM111.881 34.8978H107.913C108.065 35.6649 108.676 36.432 109.592 36.432C110.508 36.432 110.813 35.9718 110.966 35.8183H111.881C111.729 36.1252 111.118 37.1991 109.592 37.1991C108.065 37.1991 106.997 36.1252 106.997 34.7444C106.997 33.2102 108.065 32.2896 109.439 32.2896C110.813 32.2896 111.881 33.3636 111.881 34.8978ZM108.065 34.1307H110.966C110.66 33.3636 110.202 33.0567 109.439 33.0567C108.676 33.0567 108.218 33.3636 108.065 34.1307ZM117.834 34.8978C117.834 36.1252 116.766 37.1991 115.239 37.1991C113.713 37.1991 112.797 36.2786 112.797 34.591L112.95 33.2102C112.95 31.6759 113.713 30.602 115.545 30.2951L117.376 29.9883V30.9088L115.545 31.2157C114.324 31.3691 113.866 31.8294 113.713 33.2102C114.018 32.7499 114.629 32.443 115.392 32.443C116.766 32.443 117.834 33.3636 117.834 34.8978ZM116.918 34.8978C116.918 33.9773 116.308 33.2102 115.239 33.2102C114.324 33.2102 113.713 33.9773 113.713 34.8978C113.713 35.8183 114.324 36.432 115.239 36.432C116.308 36.432 116.918 35.6649 116.918 34.8978ZM122.108 37.1991V35.3581H120.734L119.513 37.1991H118.597L119.818 35.3581C119.055 35.0512 118.597 34.591 118.597 33.8238C118.75 33.0567 119.208 32.2896 120.429 32.2896H123.024V37.0457H122.108V37.1991ZM122.108 34.591V33.2102H120.429C119.818 33.2102 119.513 33.3636 119.513 33.8238C119.513 34.2841 119.818 34.591 120.429 34.591H122.108Z" fill="#FF5200"/>
</g>
<defs>
<clipPath id="clip0_120_904">
<rect width="194" height="40" fill="white"/>
</clipPath>
</defs>
</svg>
