<svg width="70" height="70" viewBox="0 0 70 70" fill="none" xmlns="http://www.w3.org/2000/svg">
<path fill-rule="evenodd" clip-rule="evenodd" d="M68.0909 11.455H1.90909V49.0004H68.0909V11.455ZM0 9.5459V50.9095H70V9.5459H0Z" fill="white"/>
<path d="M19.7275 56H50.273V57.2727C50.273 59.3814 48.5272 61.0909 46.3736 61.0909H23.627C21.4734 61.0909 19.7275 59.3814 19.7275 57.2727V56Z" fill="white"/>
<path d="M50.9665 22.2725H55.3479V25.6474C55.3479 26.8899 55.0894 27.8738 54.5724 28.5992C54.0553 29.3178 53.1723 29.9491 51.9233 30.4931L50.9665 28.6999C51.7454 28.3372 52.2792 27.9779 52.568 27.6219C52.8634 27.2593 53.0279 26.8328 53.0615 26.3425H50.9665V22.2725ZM56.0731 22.2725H60.4546V25.6474C60.4546 26.8899 60.1961 27.8738 59.679 28.5992C59.162 29.3178 58.279 29.9491 57.03 30.4931L56.0731 28.6999C56.8521 28.3372 57.3859 27.9779 57.6746 27.6219C57.9701 27.2593 58.1346 26.8328 58.1682 26.3425H56.0731V22.2725Z" fill="white"/>
<path d="M19.8814 22.2725V37.2933H15.7482V27.4507C15.0794 27.9611 14.4307 28.3742 13.8021 28.6898C13.1801 29.0055 12.3976 29.3077 11.4546 29.5965V26.2317C12.8457 25.7817 13.9258 25.241 14.6949 24.6097C15.464 23.9784 16.0659 23.1993 16.5006 22.2725H19.8814Z" fill="white"/>
<path d="M36.0781 37.2933H23.8191C23.9596 36.0777 24.3842 34.9359 25.0932 33.868C25.8088 32.7935 27.1464 31.5274 29.1059 30.07C30.3031 29.1768 31.0688 28.4984 31.4032 28.035C31.7376 27.5716 31.9048 27.1317 31.9048 26.7153C31.9048 26.2653 31.7376 25.8824 31.4032 25.5668C31.0755 25.2444 30.6609 25.0832 30.1593 25.0832C29.6376 25.0832 29.2096 25.2478 28.8752 25.5769C28.5475 25.9059 28.3268 26.4869 28.2131 27.3197L24.1201 26.9873C24.2806 25.8321 24.5748 24.9321 25.0029 24.2873C25.4309 23.6359 26.0328 23.1389 26.8086 22.7963C27.5911 22.4471 28.6712 22.2725 30.0489 22.2725C31.4868 22.2725 32.6037 22.437 33.3996 22.7661C34.2021 23.0952 34.8308 23.6023 35.2856 24.2873C35.747 24.9657 35.9778 25.728 35.9778 26.5742C35.9778 27.4742 35.7136 28.3339 35.1853 29.1532C34.6636 29.9726 33.7106 30.8726 32.3262 31.8532C31.5035 32.4241 30.9518 32.8237 30.6709 33.052C30.3967 33.2804 30.0723 33.5793 29.6978 33.9486H36.0781V37.2933Z" fill="white"/>
<path d="M37.6182 29.8484C37.6182 27.041 38.1198 25.0765 39.123 23.9549C40.1328 22.8333 41.6677 22.2725 43.7276 22.2725C44.7174 22.2725 45.53 22.3967 46.1654 22.6452C46.8007 22.887 47.319 23.206 47.7203 23.6023C48.1216 23.9918 48.4359 24.4049 48.6633 24.8414C48.8974 25.2713 49.0846 25.775 49.2251 26.3526C49.4993 27.454 49.6364 28.6025 49.6364 29.798C49.6364 32.4778 49.185 34.4389 48.2821 35.6814C47.3792 36.9239 45.8243 37.5452 43.6173 37.5452C42.38 37.5452 41.3801 37.3471 40.6177 36.9508C39.8553 36.5545 39.23 35.9736 38.7418 35.2079C38.3873 34.6639 38.1097 33.9218 37.9091 32.9815C37.7152 32.0345 37.6182 30.9901 37.6182 29.8484ZM41.6711 29.8585C41.6711 31.739 41.8349 33.0252 42.1626 33.7169C42.497 34.402 42.9786 34.7445 43.6072 34.7445C44.0219 34.7445 44.3797 34.6001 44.6806 34.3113C44.9883 34.0158 45.2123 33.5524 45.3528 32.9211C45.4999 32.2897 45.5735 31.3058 45.5735 29.9693C45.5735 28.0081 45.4063 26.6917 45.0719 26.0201C44.7442 25.3418 44.2493 25.0026 43.5872 25.0026C42.9117 25.0026 42.4235 25.3485 42.1225 26.0403C41.8216 26.7253 41.6711 27.9981 41.6711 29.8585Z" fill="white"/>
<path d="M36.9098 56.6364H33.0916V55.0664L24.1821 46.1569V44.8643L29.2823 49.9645H34.3644V43.9092H35.6371V49.9645H40.7181L45.8188 44.8638V46.1563L36.9098 55.0654V56.6364Z" fill="white"/>
</svg>
