<svg width="70" height="70" viewBox="0 0 70 70" fill="none" xmlns="http://www.w3.org/2000/svg">
<path d="M17.1568 39.6895C18.508 39.6895 19.6356 40.1686 20.5395 41.1268C21.4527 42.0756 21.9094 43.2568 21.9094 44.6704C21.9094 46.0841 21.4527 47.27 20.5395 48.2282C19.6356 49.177 18.508 49.6514 17.1568 49.6514H13.2429V39.6895H17.1568ZM17.1568 47.4597C17.9303 47.4597 18.5546 47.2083 19.0299 46.7055C19.5144 46.1932 19.7567 45.5148 19.7567 44.6704C19.7567 43.826 19.5144 43.1524 19.0299 42.6496C18.5546 42.1373 17.9303 41.8811 17.1568 41.8811H15.4794V47.4597H17.1568Z" fill="white"/>
<path d="M31.4419 48.3563C30.4541 49.3525 29.252 49.8506 27.8356 49.8506C26.4191 49.8506 25.217 49.3525 24.2292 48.3563C23.2414 47.3601 22.7475 46.1315 22.7475 44.6704C22.7475 43.2093 23.2414 41.9807 24.2292 40.9845C25.217 39.9883 26.4191 39.4902 27.8356 39.4902C29.252 39.4902 30.4541 39.9883 31.4419 40.9845C32.4297 41.9807 32.9236 43.2093 32.9236 44.6704C32.9236 46.1315 32.4297 47.3601 31.4419 48.3563ZM25.7947 46.8051C26.3446 47.3554 27.0248 47.6305 27.8356 47.6305C28.6463 47.6305 29.3219 47.3554 29.8624 46.8051C30.4122 46.2548 30.6871 45.5433 30.6871 44.6704C30.6871 43.7976 30.4122 43.086 29.8624 42.5357C29.3219 41.9855 28.6463 41.7103 27.8356 41.7103C27.0248 41.7103 26.3446 41.9855 25.7947 42.5357C25.2543 43.086 24.984 43.7976 24.984 44.6704C24.984 45.5433 25.2543 46.2548 25.7947 46.8051Z" fill="white"/>
<path d="M36.4193 47.4597H39.9139V49.6514H34.1828V39.6895H36.4193V47.4597Z" fill="white"/>
<path d="M46.9654 44.4854C47.7668 45.0072 48.1675 45.7567 48.1675 46.734C48.1675 47.5973 47.8647 48.2994 47.2589 48.8402C46.6532 49.381 45.9031 49.6514 45.0085 49.6514H40.8989V39.6895H44.7289C45.6049 39.6895 46.3364 39.9551 46.9235 40.4864C47.5199 41.0082 47.8181 41.6913 47.8181 42.5357C47.8181 43.3327 47.5338 43.9826 46.9654 44.4854ZM44.7289 41.8242H43.1354V43.5888H44.7289C44.9805 43.5888 45.1855 43.5082 45.3439 43.3469C45.5024 43.1761 45.5816 42.9627 45.5816 42.7065C45.5816 42.4503 45.5024 42.2416 45.3439 42.0803C45.1855 41.9096 44.9805 41.8242 44.7289 41.8242ZM45.0085 47.5167C45.288 47.5167 45.5117 47.4313 45.6794 47.2605C45.8472 47.0802 45.931 46.8478 45.931 46.5632C45.931 46.2786 45.8472 46.0509 45.6794 45.8801C45.5117 45.6998 45.288 45.6097 45.0085 45.6097H43.1354V47.5167H45.0085Z" fill="white"/>
<path d="M56.7564 39.6895L53.4716 45.8232V49.6514H51.2351V45.8232L47.9502 39.6895H50.4942L52.3533 43.5319L54.2124 39.6895H56.7564Z" fill="white"/>
<path d="M20.5675 62.8131L19.6793 60.5159H15.1424L14.2541 62.8131H13.2429L16.9189 53.464H17.9028L21.5787 62.8131H20.5675ZM15.484 59.6344H19.3376L17.4108 54.6259L15.484 59.6344Z" fill="white"/>
<path d="M28.0025 53.464V54.3455H25.0644V62.8131H24.1079V54.3455H21.1698V53.464H28.0025Z" fill="white"/>
<path d="M37.9787 53.464V62.8131H37.0221V54.8797L33.6741 60.3556H33.5374L30.1895 54.8797V62.8131H29.2329V53.464H30.4218L33.6058 58.6728L36.7898 53.464H37.9787Z" fill="white"/>
<path d="M47.938 61.571C46.9814 62.5059 45.8107 62.9734 44.426 62.9734C43.0412 62.9734 41.8706 62.5059 40.914 61.571C39.9574 60.6272 39.4792 59.483 39.4792 58.1385C39.4792 56.7941 39.9574 55.6543 40.914 54.7194C41.8706 53.7756 43.0412 53.3037 44.426 53.3037C45.8107 53.3037 46.9814 53.7756 47.938 54.7194C48.8945 55.6543 49.3728 56.7941 49.3728 58.1385C49.3728 59.483 48.8945 60.6272 47.938 61.571ZM41.5836 60.9299C42.3489 61.6868 43.2963 62.0652 44.426 62.0652C45.5557 62.0652 46.5031 61.6868 47.2684 60.9299C48.0336 60.1642 48.4162 59.2337 48.4162 58.1385C48.4162 57.0434 48.0336 56.1174 47.2684 55.3605C46.5031 54.5948 45.5557 54.2119 44.426 54.2119C43.2963 54.2119 42.3489 54.5948 41.5836 55.3605C40.8184 56.1174 40.4357 57.0434 40.4357 58.1385C40.4357 59.2337 40.8184 60.1642 41.5836 60.9299Z" fill="white"/>
<path d="M53.5314 62.9734C52.6569 62.9734 51.9053 62.773 51.2767 62.3724C50.6572 61.9628 50.2244 61.4018 49.9785 60.6895L50.7984 60.2221C50.9715 60.8008 51.2903 61.2549 51.755 61.5844C52.2196 61.9049 52.8163 62.0652 53.5451 62.0652C54.2557 62.0652 54.8069 61.9138 55.1986 61.6111C55.5994 61.2994 55.7999 60.8899 55.7999 60.3823C55.7999 59.8926 55.6177 59.5231 55.2533 59.2738C54.8889 59.0245 54.2876 58.7663 53.4494 58.4992C52.4564 58.1786 51.8005 57.9204 51.4816 57.7245C50.7528 57.2971 50.3884 56.6783 50.3884 55.868C50.3884 55.0756 50.6708 54.4523 51.2357 53.9982C51.8005 53.5352 52.4974 53.3037 53.3265 53.3037C54.0735 53.3037 54.7203 53.4951 55.2669 53.878C55.8135 54.252 56.2189 54.7328 56.4831 55.3205L55.6769 55.7612C55.2396 54.7283 54.4561 54.2119 53.3265 54.2119C52.7343 54.2119 52.256 54.3544 51.8916 54.6393C51.5272 54.9242 51.345 55.3205 51.345 55.828C51.345 56.291 51.509 56.6382 51.8369 56.8697C52.1649 57.1012 52.707 57.3372 53.4631 57.5776C53.8093 57.6933 54.0553 57.7779 54.201 57.8314C54.3559 57.8759 54.5746 57.956 54.857 58.0718C55.1485 58.1786 55.3626 58.2766 55.4992 58.3656C55.6359 58.4457 55.7999 58.5615 55.9912 58.7128C56.1916 58.8553 56.3328 59.0022 56.4148 59.1536C56.5059 59.2961 56.5833 59.4741 56.6471 59.6878C56.72 59.8926 56.7564 60.1152 56.7564 60.3556C56.7564 61.1481 56.4604 61.7847 55.8682 62.2655C55.276 62.7374 54.4971 62.9734 53.5314 62.9734Z" fill="white"/>
<path fill-rule="evenodd" clip-rule="evenodd" d="M13.2429 7.02734H56.7564V36.727H13.2429V7.02734ZM18.0776 10.4808H21.1858C27.4798 10.4808 32.5821 15.5832 32.5821 21.8772C32.5821 28.1713 27.4798 33.2736 21.1857 33.2736H18.0776V10.4808ZM48.123 10.4808H51.2311V33.2736H48.123C41.8289 33.2736 36.7266 28.1713 36.7266 21.8772C36.7266 15.5832 41.8289 10.4808 48.123 10.4808Z" fill="white"/>
</svg>
