<svg width="157" height="103" viewBox="0 0 157 103" fill="none" xmlns="http://www.w3.org/2000/svg">
<path fill-rule="evenodd" clip-rule="evenodd" d="M118 0H39V79H118V0ZM60 10H108V21H60V33H87V44H60V58H97V33H108V58V69H97H60H49V58V44V33V21V10H60Z" fill="white"/>
<path d="M7.57148 87.2913L7.32795 88.9048H2.05891V93.9916H6.64164V95.605H2.05891V101.073H7.63789V102.709H0V87.2913H7.57148Z" fill="white"/>
<path d="M16.0451 87.2913C17.8752 87.2913 19.27 87.6872 20.2293 88.479C21.1887 89.2708 21.6684 90.4585 21.6684 92.042C21.6684 93.7152 21.1739 94.9627 20.1851 95.7843C19.211 96.591 17.8531 96.9944 16.1115 96.9944H14.6504V102.709H12.5915V87.2913H16.0451ZM16.0451 95.381C17.2111 95.381 18.0819 95.1345 18.6575 94.6415C19.2331 94.1485 19.5209 93.2894 19.5209 92.0644C19.5209 90.944 19.2331 90.1373 18.6575 89.6443C18.0966 89.1363 17.2332 88.8824 16.0672 88.8824H14.6504V95.381H16.0451Z" fill="white"/>
<path d="M33.9651 87.2913L33.7216 88.9048H28.4525V93.9916H33.0353V95.605H28.4525V101.073H34.0315V102.709H26.3936V87.2913H33.9651Z" fill="white"/>
<path d="M45.0511 94.5518C47.265 94.9402 48.3719 96.2101 48.3719 98.3613C48.3719 99.8254 47.8849 100.916 46.9108 101.633C45.9367 102.35 44.5936 102.709 42.8815 102.709H38.9851V87.2913H42.2838C44.0401 87.2913 45.3906 87.62 46.3352 88.2773C47.2798 88.9346 47.752 89.8982 47.752 91.1681C47.752 92.0794 47.5011 92.8263 46.9993 93.409C46.5123 93.9767 45.8629 94.3576 45.0511 94.5518ZM41.044 88.8824V93.8571H42.9479C43.804 93.8571 44.4681 93.6405 44.9404 93.2073C45.4275 92.7591 45.671 92.1391 45.671 91.3473C45.671 90.4809 45.4053 89.8534 44.874 89.465C44.3574 89.0766 43.5604 88.8824 42.483 88.8824H41.044ZM42.9036 101.073C43.9811 101.073 44.8076 100.864 45.3832 100.445C45.9588 100.012 46.2466 99.3025 46.2466 98.3165C46.2466 96.3744 45.2061 95.4034 43.125 95.4034H41.044V101.073H42.9036Z" fill="white"/>
<path d="M60.6809 102.709L59.6626 98.7871H54.5485L53.5301 102.709H51.4712L55.8768 87.2913H58.4006L62.8063 102.709H60.6809ZM54.9691 97.1513H59.2419L57.1166 88.9496L54.9691 97.1513Z" fill="white"/>
<path d="M74.6587 102.709V95.4706H69.124V102.709H67.065V87.2913H69.124V93.7675H74.6587V87.2913H76.7176V102.709H74.6587Z" fill="white"/>
<path d="M99.7153 87.2913V102.709H97.6564V89.0168H92.1881V102.709H90.1292V87.2913H99.7153Z" fill="white"/>
<path d="M114.937 87.2913V102.709H112.878V88.9944H108.848L108.118 95.8515C107.926 97.6592 107.705 99.0112 107.454 99.9076C107.218 100.804 106.893 101.469 106.48 101.902C106.066 102.32 105.454 102.679 104.642 102.978L104.133 101.387C104.576 101.177 104.908 100.916 105.129 100.602C105.365 100.289 105.55 99.7806 105.683 99.0784C105.83 98.3763 105.978 97.2782 106.125 95.7843L107.033 87.2913H114.937Z" fill="white"/>
<path d="M128.395 102.709L127.376 98.7871H122.262L121.244 102.709H119.185L123.59 87.2913H126.114L130.52 102.709H128.395ZM122.683 97.1513H126.956L124.83 88.9496L122.683 97.1513Z" fill="white"/>
<path d="M137.59 103C135.775 103 134.284 102.298 133.118 100.894L134.27 99.7731C134.742 100.266 135.236 100.647 135.753 100.916C136.269 101.17 136.838 101.297 137.457 101.297C138.373 101.297 139.088 101.028 139.605 100.49C140.136 99.9524 140.402 99.2054 140.402 98.2493C140.402 97.3231 140.144 96.606 139.627 96.098C139.125 95.5901 138.38 95.3361 137.391 95.3361L136.063 95.3585L136.328 93.7003H137.391C138.218 93.7003 138.86 93.4762 139.317 93.028C139.789 92.5649 140.026 91.9225 140.026 91.1008C140.026 90.3838 139.826 89.8011 139.428 89.3529C139.044 88.8898 138.468 88.6583 137.701 88.6583C136.624 88.6583 135.576 89.1289 134.557 90.07L133.517 88.9272C134.816 87.6424 136.269 87 137.878 87C139.206 87 140.247 87.3735 141 88.1204C141.767 88.8525 142.151 89.7937 142.151 90.944C142.151 91.8702 141.9 92.6321 141.398 93.2297C140.896 93.8123 140.195 94.2157 139.295 94.4398C140.284 94.5742 141.081 94.9627 141.686 95.605C142.291 96.2474 142.594 97.1438 142.594 98.2941C142.594 99.2353 142.38 100.064 141.952 100.782C141.524 101.484 140.926 102.029 140.158 102.417C139.406 102.806 138.55 103 137.59 103Z" fill="white"/>
<path d="M154.875 102.709L153.856 98.7871H148.742L147.724 102.709H145.665L150.071 87.2913H152.594L157 102.709H154.875ZM149.163 97.1513H153.436L151.31 88.9496L149.163 97.1513Z" fill="white"/>
</svg>
