<svg width="140" height="24" viewBox="0 0 140 24" fill="none" xmlns="http://www.w3.org/2000/svg">
<path d="M91.5665 12.4625L90.8862 23.085H97.2934L97.9831 12.293C98.2894 7.39046 94.812 7.03046 92.5137 6.78973C92.3584 6.77664 91.1363 6.67773 89.4621 6.67773C89.029 6.67773 88.5674 6.68064 88.0876 6.69883C84.0998 6.8341 79.1969 7.39992 79.1481 7.40937L79.0329 7.4261L78.0273 23.085H84.46L85.2439 10.3737C85.2439 10.3737 87.8543 10.0385 89.3272 10.1279C90.7965 10.2108 91.6766 10.6705 91.5614 12.3737" fill="white"/>
<path d="M19.5304 0.728516H19.3918L19.3816 0.868879L18.7866 8.51833H8.72995L9.22505 2.14888C9.24182 0.783061 8.0788 0.728516 7.5013 0.728516C7.3788 0.728516 7.02953 0.728516 7.02953 0.728516H7.03172H2.44964H2.31255L2.30234 0.868879L0.588802 22.8492L0.574219 23.0129H0.738281H7.46193H7.60047L7.61213 22.8725L8.36828 13.1641H18.4249L17.6688 22.8492L17.6586 23.0129H17.819H24.5179H24.6571L24.6666 22.8725L26.3787 0.88997L26.3918 0.728516H26.2314H19.5304Z" fill="white"/>
<path d="M28.7037 6.79883H28.5644L28.552 6.93701L27.3146 23.0134H27.3008H27.4648H34.039H34.1797H34.1885L35.4237 6.96174L35.4354 6.79883H35.272H28.7037Z" fill="white"/>
<path d="M34.3835 0.728516H29.1984H29.0577L29.0482 0.88997L28.7514 4.81942L28.7383 4.98088H28.9002H35.4663H35.6085L35.6165 4.84197C35.6165 4.84197 35.7849 2.55906 35.8112 2.14961C35.871 1.19833 35.4882 0.728516 34.3835 0.728516Z" fill="white"/>
<path d="M49.4433 13.3814L46.9867 12.3538C45.2651 11.6629 43.9679 11.156 44.1947 10.4483C44.323 10.0491 45.1105 9.78798 47.4694 9.78798C49.5935 9.78798 51.9552 10.0454 54.6903 10.5567L54.8486 10.5851L54.8639 10.4316L55.1636 7.36035L55.1781 7.22507L55.0389 7.19744C53.9772 6.99089 51.116 6.51089 47.581 6.43526C47.3396 6.43089 47.0968 6.42871 46.8598 6.42871C45.5036 6.42871 44.2246 6.51089 43.0674 6.66653C40.8763 6.9698 37.1728 7.9298 36.9876 10.9785C36.7973 14.1043 40.5416 15.4643 42.8268 16.4142L44.7255 17.1647C46.8875 18.0294 47.9142 18.3429 47.8712 18.9814C47.8281 19.5873 47.0078 19.74 45.061 19.74C44.8152 19.74 44.5615 19.7364 44.2968 19.7313C41.8344 19.6789 38.3643 19.172 37.0678 18.948L36.9052 18.9204L36.8972 19.0774L36.6858 22.3953L36.6777 22.5334L36.8185 22.5545C36.844 22.5582 39.4223 22.9669 44.918 23.1124C45.2418 23.1211 45.5648 23.1276 45.8871 23.1276C49.8866 23.1276 54.7625 22.5044 55.2955 19.1814C55.7885 16.1363 52.5743 14.7785 49.4433 13.3814Z" fill="white"/>
<path d="M76.7082 16.2022C78.0856 8.39565 71.1447 6.87347 69.5172 6.6291C68.9171 6.54983 68.2732 6.49674 67.5718 6.48438L67.4923 6.48728C60.59 6.61092 57.8775 10.1447 56.8129 12.7309C56.7349 12.9258 56.4775 13.6247 56.3623 14.4618C56.3528 14.5709 56.3412 14.6815 56.3324 14.8C56.3244 14.8546 56.3237 14.9076 56.3178 14.96C56.164 17.3506 56.829 21.3709 62.6295 22.7513C62.9474 22.8255 63.2763 22.8931 63.6248 22.9542C64.8228 23.1295 65.7532 23.3273 68.0713 23.3273C72.0044 23.3273 74.5302 22.7513 75.6101 22.4393C75.7224 21.7164 75.9572 20.2371 76.1373 19.0989C75.6065 19.216 72.401 19.8989 68.9025 19.8989C68.7931 19.8989 68.6874 19.8953 68.5817 19.8895C63.7167 19.7266 62.7476 17.3469 62.7425 16.2538C62.7425 16.2538 62.7396 16.2327 62.736 16.2015H76.7082V16.2022ZM63.0065 13.1404C63.3105 11.4342 64.6318 9.69892 67.4376 9.68437C71.5195 9.71856 71.2519 13.1404 71.2519 13.1404H63.0065Z" fill="white"/>
<path d="M111.974 13.3814L109.517 12.3538C107.797 11.6629 106.5 11.156 106.725 10.4483C106.851 10.0491 107.642 9.78798 109.998 9.78798C112.121 9.78798 114.487 10.0454 117.222 10.5567L117.381 10.5851L117.396 10.4316L117.695 7.36035L117.709 7.22507L117.57 7.19744C116.506 6.99089 113.647 6.51089 110.114 6.43526C109.869 6.43089 109.624 6.42871 109.389 6.42871C108.031 6.42871 106.754 6.51089 105.598 6.66653C103.407 6.9698 99.7019 7.9298 99.5182 10.9785C99.3278 14.1043 103.073 15.4643 105.359 16.4142L107.255 17.1647C109.418 18.0294 110.443 18.3429 110.399 18.9814C110.357 19.5873 109.535 19.74 107.59 19.74C107.346 19.74 107.093 19.7364 106.826 19.7313C104.369 19.6789 100.895 19.172 99.6005 18.948L99.4387 18.9204L99.427 19.0774L99.2185 22.3953L99.209 22.5334L99.3475 22.5545C99.3738 22.5582 101.958 22.9669 107.449 23.1124C107.772 23.1211 108.097 23.1276 108.418 23.1276C112.418 23.1276 117.294 22.5044 117.83 19.1814C118.319 16.1363 115.106 14.7785 111.974 13.3814Z" fill="white"/>
<path d="M139.239 16.2022C140.616 8.39565 133.677 6.87347 132.051 6.6291C131.45 6.54983 130.807 6.49674 130.105 6.48438L130.026 6.48728C123.125 6.61092 120.411 10.1447 119.346 12.7309C119.266 12.9258 119.009 13.6247 118.898 14.4618C118.883 14.5709 118.872 14.6815 118.86 14.8C118.856 14.8546 118.851 14.9076 118.851 14.96C118.696 17.3506 119.36 21.3709 125.158 22.7513C125.479 22.8255 125.807 22.8931 126.16 22.9542C127.356 23.1295 128.287 23.3273 130.603 23.3273C134.536 23.3273 137.065 22.7513 138.14 22.4393C138.255 21.7164 138.49 20.2371 138.668 19.0989C138.137 19.216 134.93 19.8989 131.435 19.8989C131.322 19.8989 131.22 19.8953 131.114 19.8895C126.249 19.7266 125.281 17.3469 125.275 16.2538C125.275 16.2538 125.27 16.2327 125.27 16.2015H139.239V16.2022ZM125.539 13.1404C125.843 11.4342 127.165 9.69892 129.969 9.68437C134.052 9.71856 133.783 13.1404 133.783 13.1404H125.539Z" fill="white"/>
</svg>
