<svg width="26" height="23" viewBox="0 0 26 23" fill="none" xmlns="http://www.w3.org/2000/svg">
<path d="M0.392507 10.8873C3.05237 9.42215 6.02151 8.19934 8.79572 6.97027C13.5685 4.95716 18.3601 2.97894 23.2002 1.13723C24.1419 0.823424 25.8339 0.516536 25.9998 1.91208C25.909 3.88746 25.5353 5.85128 25.2789 7.81509C24.6283 12.1337 23.8763 16.4375 23.1429 20.7419C22.8903 22.1757 21.0942 22.9179 19.9449 22.0004C17.183 20.1348 14.3999 18.2874 11.6733 16.3786C10.7801 15.471 11.6083 14.1677 12.406 13.5196C14.6808 11.2778 17.0933 9.37314 19.2491 7.0155C19.8307 5.61113 18.1124 6.79469 17.5457 7.15733C14.4315 9.30336 11.3935 11.5804 8.11018 13.4665C6.43306 14.3897 4.47835 13.6007 2.80199 13.0856C1.29891 12.4632 -0.903493 11.8362 0.392507 10.8873Z" fill="white"/>
</svg>
