<svg width="140" height="140" viewBox="0 0 140 140" fill="none" xmlns="http://www.w3.org/2000/svg">
<g opacity="0.4">
<path d="M104.924 46.0309C104.003 32.5559 94.9728 21.5309 81.667 21.5309C70.3036 21.0611 60.339 29.0552 58.3337 40.2501C56.3231 29.0598 46.36 21.0719 35.0003 21.5426C20.9478 21.5426 11.667 33.7926 11.667 48.3117C11.667 71.5051 35.3678 86.9167 54.8337 102.667" stroke="white" stroke-width="0.5" stroke-linecap="round" stroke-linejoin="round"/>
<path fill-rule="evenodd" clip-rule="evenodd" d="M105.712 87.3308C109.782 81.4977 108.912 73.5541 103.676 68.74C100.573 65.9313 96.4609 64.5061 92.2852 64.7922C88.1095 65.0782 84.23 67.051 81.5389 70.2566C70.6656 81.1358 75.4372 99.9366 76.8722 116.177C93.1122 117.606 111.919 122.383 122.792 111.51C125.998 108.819 127.971 104.939 128.257 100.764C128.543 96.588 127.118 92.4756 124.309 89.3725C119.494 84.1341 111.549 83.2618 105.712 87.3308V87.3308Z" stroke="white" stroke-width="0.5" stroke-linecap="round" stroke-linejoin="round"/>
</g>
</svg>
