<svg width="160" height="24" viewBox="0 0 160 24" fill="none" xmlns="http://www.w3.org/2000/svg">
<mask id="mask0_120_1146" style="mask-type:alpha" maskUnits="userSpaceOnUse" x="27" y="1" width="15" height="23">
<path d="M27.3477 23.345H41.0926L40.396 21.1361L27.3477 23.345ZM27.3477 23.345L39.8011 19.2281L39.1201 17.0509L27.3477 23.345ZM27.3477 23.345L38.6035 15.412L37.9069 13.1952L27.3477 23.345ZM27.3477 23.345L37.3903 11.5564L36.6545 9.22874L27.3477 23.345ZM27.3477 23.345L36.2318 7.86699L35.4491 5.37309L27.3477 23.345ZM27.3477 23.345L34.9716 3.96384L34.6976 2.99795L34.2123 1.4541L27.3477 23.345Z" fill="white"/>
</mask>
<g mask="url(#mask0_120_1146)">
<path d="M17.1816 12.1046L34.8631 -4.07324L51.1861 14.2943L33.4972 30.4722L17.1816 12.1046Z" fill="url(#paint0_linear_120_1146)"/>
</g>
<path d="M6.79487 0.67627H1.31836L1.32552 23.3672H6.79487H18.9864V21.0399H6.79487V0.67627Z" fill="white"/>
<path d="M64.5938 23.2434H82.3548V20.9088H70.0774V11.8979H80.4506V9.94884H70.0774V2.45066H82.3548V0.516113H64.5938V23.2434Z" fill="white"/>
<path d="M144.796 0.538086L138.153 20.2617L130.128 0.538086H130.035H127.837H123.356H117.886H111.207V2.85809H117.886V20.8944H117.879V23.2217H123.356V2.85809H128.782L137.079 23.2435H137.151H139.37H139.441L147.087 0.538086H144.796Z" fill="white"/>
<path d="M21.2773 23.3672H26.7539L33.9413 0.67627H28.4577L21.2773 23.3672Z" fill="white"/>
<path d="M57.8737 10.7707H51.2589C50.6719 10.7707 50.1707 10.5671 49.7555 10.1598C49.3332 9.76707 49.1256 9.30162 49.1256 8.76344V4.47253C49.1256 3.92708 49.3045 3.46889 49.6696 3.09071C49.9846 2.77071 50.5645 2.61798 51.4235 2.61798H61.4889V0.661621H47.6795C46.169 0.661621 44.9663 1.30162 44.0714 2.57435C43.7206 3.06889 43.5488 3.97798 43.5488 5.28708V9.11253C43.5488 10.3271 43.8423 11.2362 44.4222 11.8253C45.1452 12.5671 46.1045 12.938 47.3001 12.938H54.5305C55.1533 12.938 55.6186 13.0689 55.9193 13.3234C56.3631 13.6871 56.5922 14.1089 56.5922 14.5816V18.7125C56.5922 19.6725 56.4419 20.298 56.1412 20.5962C55.7618 20.9598 55.2607 21.1416 54.6379 21.1416H43.735V23.3162H57.437C58.8974 23.3162 60.0786 22.8434 60.9734 21.9053C61.7752 21.0616 62.169 19.8907 62.169 18.3853V15.7016C62.169 14.1089 61.7824 12.8871 61.0021 12.0362C60.2146 11.1998 59.1694 10.7707 57.8737 10.7707Z" fill="white"/>
<path d="M99.4381 12.1089C100.641 12.1089 101.607 11.7089 102.337 10.9089C103.06 10.1162 103.418 8.98892 103.418 7.51255V5.02528C103.418 3.62892 103.046 2.54528 102.309 1.7671C101.478 0.894372 100.383 0.458008 99.03 0.458008H90.5253H86.3231H85.0488V2.78528H85.056V23.1489H90.5325V12.1089H93.5678L98.7365 23.0616H104.514L99.4166 12.1089H99.4381ZM98.2497 8.55983C98.2497 9.00346 98.0421 9.38892 97.6269 9.73074C97.3477 9.97074 96.9182 10.0871 96.3383 10.0871H90.5253V2.47255H96.4314C97.0113 2.47255 97.4766 2.63983 97.8274 2.98164C98.1066 3.25801 98.2497 3.83983 98.2497 4.7271V8.55983Z" fill="white"/>
<path d="M151.719 19.5855H152.771V17.8983C152.771 17.6001 152.785 17.3237 152.8 17.0474C152.678 17.3674 152.578 17.6001 152.456 17.8765L151.719 19.5855Z" fill="white"/>
<path d="M157.747 14.3418H150.653C150.159 14.3418 149.758 14.7491 149.758 15.2509V22.4582C149.758 22.96 150.159 23.3673 150.653 23.3673H157.747C158.241 23.3673 158.642 22.96 158.642 22.4582V15.2509C158.642 14.7491 158.241 14.3418 157.747 14.3418ZM154.132 20.3418H153.523V22.08H152.772V20.3418H150.91L150.918 19.7309L152.765 15.6582H153.538V19.5854H154.146V20.3418H154.132ZM156.537 22.08L156.516 22.0291L155.428 19.1563L155.199 19.5927V22.0727H154.418V15.6436H155.199V18.4073C155.263 18.2763 155.313 18.1527 155.37 18.0291L155.42 17.9127L156.494 15.6436H157.375L155.957 18.4073L157.396 22.0727H156.537V22.08Z" fill="white"/>
<defs>
<linearGradient id="paint0_linear_120_1146" x1="26.2756" y1="20.4435" x2="38.7134" y2="9.39017" gradientUnits="userSpaceOnUse">
<stop stop-color="#E6D82D"/>
<stop offset="0.2231" stop-color="#D53827"/>
<stop offset="0.4237" stop-color="#972F8B"/>
<stop offset="0.6186" stop-color="#1E68A6"/>
<stop offset="0.7709" stop-color="#5DBAD2"/>
<stop offset="0.9259" stop-color="#139D59"/>
<stop offset="1" stop-color="#139D59"/>
</linearGradient>
</defs>
</svg>
