<svg width="108" height="16" viewBox="0 0 108 16" fill="none" xmlns="http://www.w3.org/2000/svg">
<mask id="mask0_120_2139" style="mask-type:alpha" maskUnits="userSpaceOnUse" x="18" y="0" width="10" height="16">
<path d="M18.459 15.5637H27.7368L27.2666 14.0911L18.459 15.5637ZM18.459 15.5637L26.8651 12.8191L26.4054 11.3676L18.459 15.5637ZM18.459 15.5637L26.0567 10.275L25.5864 8.79715L18.459 15.5637ZM18.459 15.5637L25.2377 7.70458L24.7411 6.15282L18.459 15.5637ZM18.459 15.5637L24.4558 5.24499L23.9274 3.58239L18.459 15.5637ZM18.459 15.5637L23.6051 2.64288L23.4202 1.99896L23.0926 0.969727L18.459 15.5637Z" fill="white"/>
</mask>
<g mask="url(#mask0_120_2139)">
<path d="M11.5967 8.06991L23.5316 -2.71533L34.5497 9.52972L22.6097 20.315L11.5967 8.06991Z" fill="url(#paint0_linear_120_2139)"/>
</g>
<path d="M4.58629 0.451172H0.889648L0.894481 15.5784H4.58629H12.8156V14.0269H4.58629V0.451172Z" fill="white"/>
<path d="M43.6006 15.4958H55.5893V13.9394H47.3021V7.93212H54.3039V6.63273H47.3021V1.63394H55.5893V0.344238H43.6006V15.4958Z" fill="white"/>
<path d="M97.7372 0.358887L93.2529 13.508L87.836 0.358887H87.7732H86.2897H83.2647H79.5729H75.0645V1.90555H79.5729V13.9298H79.5681V15.4813H83.2647V1.90555H86.9275L92.5281 15.4959H92.5764H94.0744H94.1227L99.2835 0.358887H97.7372Z" fill="white"/>
<path d="M14.3623 15.5784H18.0589L22.9105 0.451172H19.209L14.3623 15.5784Z" fill="white"/>
<path d="M39.0648 7.1808H34.5998C34.2036 7.1808 33.8653 7.04504 33.585 6.77353C33.2999 6.51171 33.1598 6.20141 33.1598 5.84262V2.98201C33.1598 2.61838 33.2806 2.31292 33.527 2.0608C33.7397 1.84747 34.1311 1.74565 34.7109 1.74565H41.505V0.441406H32.1837C31.1641 0.441406 30.3523 0.868073 29.7483 1.71656C29.5115 2.04625 29.3955 2.65232 29.3955 3.52504V6.07535C29.3955 6.88504 29.5936 7.4911 29.985 7.88383C30.4731 8.37838 31.1206 8.62565 31.9276 8.62565H36.8081C37.2285 8.62565 37.5426 8.71292 37.7456 8.88262C38.0452 9.12504 38.1998 9.40625 38.1998 9.72141V12.4753C38.1998 13.1153 38.0983 13.5323 37.8954 13.7311C37.6393 13.9735 37.301 14.0947 36.8806 14.0947H29.5211V15.5444H38.77C39.7558 15.5444 40.5531 15.2293 41.1571 14.6038C41.6983 14.0414 41.9641 13.2608 41.9641 12.2572V10.4681C41.9641 9.40625 41.7032 8.59171 41.1764 8.02444C40.6449 7.46686 39.9394 7.1808 39.0648 7.1808Z" fill="white"/>
<path d="M67.121 8.07294C67.9328 8.07294 68.5851 7.80627 69.078 7.27294C69.5661 6.74445 69.8077 5.99294 69.8077 5.0087V3.35051C69.8077 2.4196 69.5564 1.69718 69.0587 1.17839C68.4981 0.596573 67.7588 0.305664 66.8455 0.305664H61.1048H58.2683H57.4082V1.85718H57.413V15.4329H61.1097V8.07294H63.1585L66.6474 15.3748H70.547L67.1065 8.07294H67.121ZM66.3188 5.70688C66.3188 6.00264 66.1787 6.2596 65.8984 6.48748C65.71 6.64748 65.42 6.72506 65.0286 6.72506H61.1048V1.64869H65.0914C65.4828 1.64869 65.7969 1.76021 66.0337 1.98809C66.2222 2.17233 66.3188 2.56021 66.3188 3.15173V5.70688Z" fill="white"/>
<path d="M102.409 13.0574H103.119V11.9325C103.119 11.7337 103.129 11.5495 103.139 11.3652C103.057 11.5786 102.989 11.7337 102.907 11.918L102.409 13.0574Z" fill="white"/>
<path d="M106.479 9.56152H101.69C101.357 9.56152 101.086 9.83304 101.086 10.1676V14.9724C101.086 15.307 101.357 15.5785 101.69 15.5785H106.479C106.812 15.5785 107.083 15.307 107.083 14.9724V10.1676C107.083 9.83304 106.812 9.56152 106.479 9.56152ZM104.038 13.5615H103.628V14.7203H103.12V13.5615H101.864L101.869 13.1542L103.115 10.4391H103.637V13.0573H104.048V13.5615H104.038ZM105.662 14.7203L105.648 14.6864L104.913 12.7712L104.758 13.0621V14.7155H104.232V10.4294H104.758V12.2718C104.802 12.1846 104.836 12.1021 104.874 12.0197L104.908 11.9421L105.633 10.4294H106.227L105.271 12.2718L106.242 14.7155H105.662V14.7203Z" fill="white"/>
<defs>
<linearGradient id="paint0_linear_120_2139" x1="17.7351" y1="13.6291" x2="26.0385" y2="6.15784" gradientUnits="userSpaceOnUse">
<stop stop-color="#E6D82D"/>
<stop offset="0.2231" stop-color="#D53827"/>
<stop offset="0.4237" stop-color="#972F8B"/>
<stop offset="0.6186" stop-color="#1E68A6"/>
<stop offset="0.7709" stop-color="#5DBAD2"/>
<stop offset="0.9259" stop-color="#139D59"/>
<stop offset="1" stop-color="#139D59"/>
</linearGradient>
</defs>
</svg>
